<svg xmlns="http://www.w3.org/2000/svg" width="138" height="138"><path d="M31.398 1.55h72.774l.07.2 2.695.07v.27h1.618q.03.1.066.2c.379.022.758.046 1.145.07l.07.335c.105-.004.105-.004.21-.004q.142-.004.282-.003c.07-.004.07-.004.14-.004.255-.004.364.003.579.144v.137c.086 0 .086 0 .172-.004h.222c.114 0 .114 0 .223-.004.191.008.191.008.328.074v.203h.805v.27h.742l.07.27h.739q.036.098.066.203c.203.02.402.043.61.066v.27h.742v.269h.539q.03.135.066.27h.473v.27h.672v.335h.539v.27h.472q.03.135.067.27h.472v.269h.336v.27h.54v.269h.472v.27h.402v.269h.473q.033.099.066.203c.137.05.137.05.27.066v.27h.336v.137h.137v.199h.336v.273h.27v.266h.405q.03.134.067.273.198.03.402.067v.199h.274v.273h.265v.266h.274v.273h.265v.266h.274q.03.105.066.203l.2.07v.133q.133.066.273.133v.137q.1.033.199.066c.148.133.148.133.27.27v.136q.135.066.269.133v.137q.135.066.27.133v.136q.098.03.203.067c.148.129.148.129.27.27v.132c.09.047.179.09.269.137v.137q.099.03.203.066.03.1.066.2l.203.07q.03.098.067.203.099.03.203.066v.27h.27v.336h.269v.27h.203v.269h.266v.27h.273v.335h.133c.133.203.133.203.133.473h.406v.27h.203c.09.183.07.335.067.538h.27v.27h.269v.473h.136v.132h.133v.27l.27.07v.469h.27v.27h.202v.203h.133v.336h.27v.539h.27l.07.605h.199l.023.156c.051.2.106.246.246.383l.07.274q.065.03.133.066c.043.152.043.152.075.34l.035.187.023.145q.104.036.203.066v.54h.27v.609q.135.03.27.066v.54h.136c.18.269.145.421.133.741q.135.03.27.067V25h.335v.875h.274v.809h.133v.203h.132v.875h.204c.105.207.074.422.074.648 0 .047-.004.094-.004.145v.351h.2c.081.16.077.262.081.438.004.062.004.12.008.183.004.125.004.25.008.38q.001.086.008.179-.001.082.004.168c.015.164.015.164.23.27.027.19.027.19.031.425q.007.129.008.258c.004.09.004.176.004.27q.007.135.008.27.011.334.015.663.1.036.2.067v25.27h.136c.106.237.153.421.153.679v8.406c0 1.05-.004 2.098-.004 3.148v22.716c-.004.261-.004.527-.004.788v11.536c-.012.171-.04.332-.078.503h-.203q.005.094.004.188v.695q.004.151.003.301v.695c-.007.207-.007.207-.074.344h-.199v.117q-.001.27.004.54v.535a1.6 1.6 0 0 1-.074.425h-.203q.004.104.003.215-.001.141.004.281V110c0 .36 0 .36-.074.508h-.2v.183c0 .121 0 .121.005.243v.238c-.004.21-.004.21-.074.414h-.203v.809h-.2q-.036.431-.066.875-.104.035-.203.066l-.07.742h-.337v.742c-.09.024-.175.043-.269.067v.539h-.133v.136h-.137q.005.106.004.22c-.004.195-.011.34-.07.523h-.203v.468c-.09.024-.176.047-.27.07v.54h-.27v.469l-.269.07q.005.11.004.226c-.004.243-.004.243-.07.38h-.203v.335h-.133v.203h-.137v.27h-.133l-.03.117-.106.422h-.27v.469l-.336.07v.27h-.133v.132h-.136v.473h-.27q-.013.095-.031.195c-.035.211-.035.211-.102.344h-.136c-.024.09-.043.18-.067.27h-.203v.27h-.27c-.023.179-.042.355-.066.538h-.203v.27h-.406v.27h-.266q-.035.196-.07.406-.1.03-.203.066v.402h-.266v.27h-.203l-.07.27h-.2v.269h-.27v.27h-.269v.269h-.27v.27h-.269v.269h-.27v.27h-.269v.27h-.27v.339h-.269v.266h-.34v.273h-.265v.266h-.274v.273h-.265l-.024.129c-.015.047-.031.09-.047.137q-.098.035-.203.07-.03.099-.066.203h-.27v.266h-.468v.273h-.274v.266h-.266v.203l-.406.07c-.023.11-.043.219-.066.336h-.406v.27c-.043.008-.086.011-.13.02l-.14.046q-.03.1-.066.203h-.473v.27c-.043.008-.086.012-.129.02l-.14.046q-.03.1-.067.203h-.473v.27h-.402v.27h-.473l-.066.269h-.473v.27h-.539v.269h-.336v.2h-.136v.136h-.47l-.07.27h-.468l-.07.269h-.672v.27h-.54v.269h-.675v.27h-.672v.27c-.29.023-.578.042-.879.065v.204h-.738q-.036.135-.067.27h-.812v.202c-.184.094-.34.075-.547.07h-.223q-.082-.004-.172-.003v.336l-1.214.07q-.03.1-.067.2c-.465.023-.933.046-1.414.066v.203h-1.683v.27H34.164v-.27H31.47c-.024-.09-.047-.176-.07-.27H29.78c-.02-.09-.043-.176-.066-.27h-1.078v-.335h-1.145c-.043-.09-.09-.18-.133-.27h-.945v-.27h-.809v-.269h-.875v-.27h-.742q-.033-.135-.066-.269h-.54v-.27h-.741c-.024-.09-.043-.18-.067-.269h-.605v-.27h-.54v-.27h-.538v-.335h-.54v-.27h-.538v-.27a3 3 0 0 0-.192.009c-.215-.008-.215-.008-.418-.145v-.133h-.27v-.27h-.538v-.269h-.473q-.03-.135-.067-.27h-.27v-.269h-.538v-.27h-.336v-.269l-.156.012c-.18-.012-.18-.012-.305-.106-.078-.109-.078-.109-.078-.242h-.27v-.273h-.27v-.266l-.472-.07q-.03-.1-.066-.203h-.27v-.266h-.27v-.273h-.269v-.266h-.27v-.273h-.335v-.266h-.27v-.273h-.27a4 4 0 0 1-.245-.293c-.102-.13-.102-.13-.293-.278a4 4 0 0 1-.54-.574l-.199-.164a3.7 3.7 0 0 1-.511-.535c-.106-.125-.106-.125-.293-.254-.07-.063-.07-.063-.145-.125v-.27h-.266v-.27h-.273v-.269h-.266v-.336h-.273v-.27H9.57v-.269h-.273v-.27H9.03v-.538h-.273v-.27h-.266v-.27H8.22v-.538h-.336v-.27h-.27v-.605h-.27v-.27h-.269v-.539h-.27v-.27h-.269v-.539h-.27v-.539h-.269v-.605h-.27v-.34q-.098-.03-.203-.066c-.03-.2-.03-.2-.066-.407q-.1-.03-.2-.066v-.133h-.136v-.605h-.27v-.54h-.269v-.609h-.27c-.023-.242-.042-.488-.066-.742q-.098-.03-.203-.066v-.54h-.27V113h-.27v-.875h-.269v-.809l-.27-.066v-1.012h-.269v-1.144q-.165-.036-.336-.07-.005-.06-.004-.126a27 27 0 0 0-.02-.57q0-.099-.003-.203-.001-.093-.008-.191c0-.09 0-.09-.004-.18-.015-.168-.015-.168-.23-.277-.027-.176-.027-.176-.027-.391-.004-.117-.004-.117-.004-.234q-.005-.123-.004-.247-.002-.245-.004-.484c-.004-.105-.004-.105-.004-.215-.004-.183-.004-.183-.125-.27-.152-.171-.129-.304-.129-.527v-4.211c0-.761 0-1.527-.004-2.289 0-1.242-.004-2.48-.004-3.718v-3.836c0-1.235-.004-2.47-.004-3.703 0-.762-.004-1.524 0-2.29q.001-.78-.004-1.562v-2.668a3 3 0 0 0-.027-.176q-.1-.067-.2-.133c-.027-.144-.027-.144-.027-.324v-1.371c.004-.246 0-.492 0-.738q-.001-.645.004-1.297v-5.168q.005-1.61.004-3.215v-1.215q-.001-3.59.004-7.18.002-3.49.004-6.98V50.66q-.001-2.199.004-4.398v-.203q.001-6.756.008-13.512c.09-.024.176-.047.27-.07v-2.223h.269v-1.617h.27v-1.145h.335v-1.078h.27c0-.055-.004-.113-.004-.168q-.005-.11-.004-.223c-.004-.074-.004-.144-.004-.222.012-.196.012-.196.149-.399h.132l-.007-.14c0-.063-.004-.125-.004-.188l-.008-.183c.008-.055.012-.106.02-.16.066-.047.132-.09.203-.137.039-.164.039-.164.046-.344l.012-.187c.004-.047.004-.094.008-.141h.27v-.809h.269l-.012-.258c-.008-.144-.008-.144.012-.28l.098-.098c.144-.145.136-.254.152-.454l.012-.187c.004-.043.004-.09.008-.14h.269v-.54h.27v-.539h.27v-.539h.335v-.605h.27v-.54h.27c.023-.156.046-.308.066-.472q.104-.03.203-.066v-.27h.27v-.54h.269c.008-.062.02-.128.027-.194q.018-.104.043-.207.064-.037.133-.067c.043-.207.043-.207.066-.406h.27l-.012-.156c.016-.215.063-.242.215-.383.047-.14.047-.14.066-.27h.27v-.27h.336v-.538h.273v-.27h.266v-.27h.273l.024-.199q.02-.1.043-.207c.043-.02.09-.043.132-.066.047-.203.047-.203.067-.402h.273v-.27h.266v-.27h.273v-.269h.266v-.27h.273v-.269h.266v-.27h.34v-.269h.27v-.27h.269v-.27h.27v-.339h.269v-.266h.27v-.273h.27v-.266h.269v-.273h.27V9.57h.269v-.273h.336q.033-.13.066-.266h.473v-.273h.27v-.266h.269V8.22h.27c.023-.067.042-.133.066-.2h.136v-.136h.336v-.27h.27v-.27h.539v-.269h.336v-.27h.539v-.269h.27c.023-.09.046-.176.066-.27h.473v-.269h.539v-.27h.539v-.269h.34l.035-.16c.097-.176.097-.176.336-.254l.234-.059q.03-.064.066-.132c.141-.043.141-.043.309-.075l.297-.058v-.137h.605v-.27h.54v-.269h.609q.03-.135.066-.27h.742v-.27c.368-.034.368-.034.739-.066q.035-.098.07-.203h.672c.047-.09.09-.18.137-.27h.875v-.269h.808c.024-.11.043-.222.067-.336l.246-.011c.105-.008.21-.012.316-.02q.076-.001.16-.008.076-.004.153-.007l.144-.008c.14-.012.14-.012.328-.082V2.09c.082-.004.16-.008.246-.008q.159-.005.317-.016.076 0 .16-.003.075-.001.152-.008.07-.002.145-.004c.133-.02.133-.02.218-.133.16-.145.286-.121.5-.117h.227l.238.008h.242l.586.011zm0 0" style="stroke:none;fill-rule:nonzero;fill:#1d1b19;fill-opacity:1"/><path d="M68.93 31.031c.226.035.36.098.543.235.082.168.074.28.074.468v2.067c0 .445-.004.886-.004 1.332v1.512c0 1.035-.004 2.074-.004 3.113l.234.012c.102.003.207.011.309.015l.152.008c.426.023.84.082 1.258.164q.011-.116.028-.238c.007-.106.02-.211.03-.317q.013-.076.016-.16.01-.075.02-.152l.016-.14c.027-.138.027-.138.093-.27.075-.153.094-.27.118-.434q.006-.088.019-.176l.023-.183c.07-.547.176-1.07.317-1.602.055-.207.094-.41.129-.617.054-.27.117-.45.34-.629.289-.05.418-.031.671.121.2.32.145.598.067.957l-.063.184c-.093.293-.14.586-.187.89a87 87 0 0 1-.399 2.164q-.08.403-.16.805.079.017.157.04c.418.1.832.21 1.242.343l.144.047q.174.054.344.11c.016-.075.016-.075.027-.15.04-.175.09-.331.153-.5.02-.058.039-.112.062-.171.024-.059.043-.117.067-.18.03-.086.03-.086.066-.18l.164-.437h.137l.012-.184c.074-.53.355-1.03.593-1.5.047-.105.098-.207.145-.312q.03-.074.066-.148c.055-.141.094-.274.125-.415h.137l.023-.18c.043-.226.11-.41.204-.62q.17-.391.316-.793c.137-.356.285-.707.433-1.063l.098-.242c.05-.113.05-.113.098-.23.043-.102.043-.102.086-.211.09-.168.09-.168.289-.301.297-.04.426-.031.676.14.136.196.136.196.125.407a5 5 0 0 1-.286.875 3 3 0 0 1-.062.16c-.11.277-.23.523-.383.777q-.074.177-.137.356c-.03.097-.03.097-.066.195q-.033.093-.066.191l-.204.54h-.136l-.035.144c-.094.355-.192.676-.368 1-.12.27-.23.539-.328.82-.12.34-.258.672-.398 1.004-.223.531-.223.531-.418 1.07h-.137c-.02.204-.043.403-.066.61l.199.082c.289.121.559.273.828.43l.285.164.121.07c.13.07.13.07.317.129l.011-.133c.082-.297.25-.52.426-.77q.112-.164.219-.324.06-.081.113-.168c.153-.222.305-.449.453-.672l.164-.246q.175-.26.344-.52c.047-.07.047-.07.09-.14.059-.082.113-.168.172-.254.473-.718.473-.718.805-.824.238.008.238.008.433.106.153.183.207.304.192.546-.106.348-.352.63-.57.918q-.216.306-.419.618-.085.129-.172.257c-.043.063-.043.063-.085.13l-.344.519q-.087.124-.172.254-.2.303-.406.601c-.078.106-.078.106-.153.215l-.136.192c-.098.156-.098.156-.094.304.117.207.3.328.492.465l.23.172.114.082c.18.137.347.277.52.422.21-.09.35-.2.511-.363.047-.047.094-.098.145-.145.05-.055.101-.105.152-.16l.168-.168q.175-.176.351-.36.282-.283.563-.57l.191-.191q.05-.051.098-.102c.438-.441.871-.879 1.305-1.324q.485-.494.976-.988.186-.186.371-.38c.172-.175.348-.35.52-.526.05-.051.101-.106.152-.157.395-.39.395-.39.719-.398.246.039.246.039.414.144.145.239.145.36.102.637-.153.219-.344.395-.536.582-.082.082-.082.082-.171.168q-.23.228-.465.457-.247.24-.489.48-.567.563-1.136 1.118-.726.71-1.446 1.426-.244.235-.488.476c-.18.176-.36.356-.543.531-.078.078-.078.078-.164.16-.047.047-.098.098-.148.145q-.059.064-.13.129c-.097.117-.097.117-.07.262.082.187.2.304.34.449.262.285.504.578.727.894.289-.039.453-.136.683-.312.235-.18.473-.344.723-.504q.474-.3.93-.617c.09-.063.18-.13.273-.192q.209-.14.418-.289.206-.144.41-.289c.043-.027.082-.058.125-.086.262-.18.438-.246.75-.203.196.102.196.102.34.266.04.234.04.234 0 .473-.289.351-.676.574-1.05.816q-.218.145-.434.285c-.035.027-.074.05-.113.078-.297.192-.586.39-.88.59-.066.047-.066.047-.132.09L83 46.48q-.18.125-.355.243-.103.069-.207.144c-.165.098-.165.098-.297.098l.07.129q.42.768.805 1.554c.421-.074.77-.199 1.156-.382.187-.086.379-.157.574-.227.211-.074.41-.152.606-.258.312-.16.64-.277.972-.398a9 9 0 0 0 1.121-.48c.27-.137.547-.239.832-.337.45-.164.891-.359 1.328-.55q.084-.038.172-.075.166-.073.336-.148c.293-.129.528-.215.856-.176.191.106.191.106.336.27.035.238.035.238 0 .472-.2.246-.407.344-.696.461-.043.016-.082.035-.125.051q-.196.082-.394.156l-.258.106q-.254.104-.508.207c-.351.14-.703.289-1.05.433q-.204.088-.407.168l-.203.086c-2.223.926-2.223.926-2.426 1.012q-.205.084-.406.168-.64.269-1.277.52c.043.289.11.554.199.832.082.254.152.507.21.77.013.054.024.105.036.163q.011.06.027.125.213-.045.426-.086c.129-.027.258-.05.383-.078q.099-.02.203-.039.31-.065.621-.125l.403-.082c.132-.027.269-.05.402-.078a72 72 0 0 0 1.16-.242 9 9 0 0 0 .344-.075c.379-.078.71-.097 1.074.07.105.126.105.126.148.352-.046.262-.097.344-.3.504-.329.18-.704.227-1.067.293-.082.016-.16.035-.246.051q-.661.134-1.328.238c-.363.063-.727.14-1.086.215q-.221.043-.45.09l-.194.04c-.157.03-.157.03-.293.03l.03.117c.09.422.114.825.11 1.258v.168q-.002.206-.004.41h.13c1.042-.007 2.081-.007 3.12-.011.504 0 1.008-.004 1.512-.004q.657-.005 1.313-.004c.234 0 .464 0 .699-.004h.777c.113 0 .113 0 .234-.004q.105-.001.211.004c.094-.004.094-.004.188-.004.21.031.34.098.508.23.074.227.074.227.07.47-.121.19-.207.304-.406.406q-.167.006-.332.007h-.699q-.335.001-.668-.004h-3.543c-1.04-.003-2.075-.003-3.114-.003 0 .078 0 .152.004.234v.309q-.001.075.004.152c0 .43-.05.836-.144 1.258q.07.01.14.027c1 .18 1.996.367 2.988.57.23.047.461.094.692.133q.07.011.14.028l.356.058c.242.07.406.172.605.328.051.235.051.235 0 .473-.203.254-.203.254-.406.336-.5.015-1.015-.13-1.504-.23-.449-.094-.898-.184-1.355-.25-.301-.04-.574-.118-.867-.212a3 3 0 0 0-.606-.09l-.219-.015-.164-.012q-.119.398-.238.797-.03.112-.066.23l-.067.22-.058.199c-.051.175-.051.175-.043.375.07.027.144.05.218.078.883.324.883.324 1.278.535.332.168.687.293 1.039.422q.069.022.137.047l.378.14c.32.121.637.262.95.403q.791.345 1.59.68l.507.214.328.14.153.063a8 8 0 0 0 .91.32c.125.055.125.055.262.258.039.297.035.426-.145.672-.191.137-.191.137-.383.176-.222-.04-.39-.121-.59-.227a4 4 0 0 0-.578-.226c-.543-.192-1.07-.418-1.601-.645q-.445-.193-.883-.379c-.062-.027-.121-.05-.184-.078a145 145 0 0 0-2.32-.957 33 33 0 0 1-1.605-.695c-.02.07-.02.07-.043.14-.141.45-.141.45-.293.602q-.031.074-.055.149c-.09.21-.21.367-.355.543-.075.117-.075.117-.051.246.07.183.152.234.316.343q.082.056.168.11c.059.039.117.082.18.12.062.044.125.083.191.126l.598.398q.2.131.394.262.292.194.579.387c1.324.879 1.324.879 1.472 1.023.008.246.008.438-.07.676-.219.152-.41.156-.672.133-.18-.098-.18-.098-.352-.227q-.083-.064-.171-.129c-.051-.039-.098-.078-.153-.117l-.199-.133v-.136l-.121-.024a1.4 1.4 0 0 1-.422-.21c-.055-.036-.105-.071-.16-.106q-.084-.06-.168-.117l-.176-.118q-.28-.186-.555-.37c-.125-.087-.25-.169-.375-.255q-.464-.31-.921-.62c-.2.097-.317.171-.45.347l-.093.125q-.053.058-.098.129c-.203.265-.398.52-.64.75.093.21.202.351.367.515l.144.145q.075.076.156.152.078.08.16.16.251.252.508.504l.34.34.625.621q.3.295.598.594c.097.098.199.195.297.297q.42.41.836.828l.503.504c.196.191.391.387.586.578.09.094.09.094.184.184.055.054.11.113.168.168l.148.148c.106.121.106.121.106.258h.137c.03.418.03.418-.102.637a.9.9 0 0 1-.559.14c-.312-.074-.511-.328-.73-.554q-.082-.082-.168-.165l-.543-.55-.379-.38q-.395-.397-.789-.796c-.3-.309-.605-.613-.914-.922l-.879-.883-.375-.379q-.263-.263-.52-.527c-.078-.078-.078-.078-.16-.156-.046-.047-.093-.098-.14-.145l-.125-.129c-.086-.11-.086-.11-.086-.312-.32.031-.461.156-.688.375-.312.297-.312.297-.457.297v.136c-.105.086-.105.086-.238.176q-.064.045-.133.09-.05.035-.101.07c.101.301.265.551.445.813q.091.135.184.27.041.068.09.136.191.284.378.567.216.321.442.632c.144.211.144.211.21.422.087.246.22.348.407.531.402.493.402.493.402.868-.066.21-.066.21-.203.41-.371.09-.371.09-.539.066-.258-.203-.426-.488-.605-.765l-.211-.32q-.064-.095-.121-.188l-.75-1.13q-.135-.198-.27-.401-.082-.126-.168-.25-.036-.06-.074-.118-.275-.404-.563-.8c-.297.085-.539.203-.804.367-.285.172-.567.32-.88.441.134.422.294.832.47 1.242q.068.17.144.34.033.077.066.16.105.246.2.493c.136.34.28.671.433 1.007q.174.397.324.805.135.359.282.71.152.381.304.767.066.17.137.347c.024.055.043.114.067.172q.198.496.433.98c.149.32.258.57.242.926-.168.254-.277.325-.57.395-.305-.07-.387-.18-.555-.434a6 6 0 0 1-.36-.836q-.08-.2-.163-.394c-.027-.07-.059-.137-.086-.207-.059-.137-.113-.274-.172-.406-.18-.418-.324-.832-.453-1.27a10 10 0 0 0-.406-1.023c-.055-.137-.114-.27-.168-.407l-.082-.199q-.087-.205-.172-.41a22 22 0 0 0-.43-.988 14 14 0 0 1-.496-1.301q-.053.017-.113.035-.264.084-.528.16c-.058.02-.117.035-.18.055q-.525.159-1.066.289.079.427.157.855c.015.082.03.16.043.243q.127.703.296 1.402c.059.266.106.535.149.805.02.136.043.277.07.414.137.777.137.777.094 1.066-.164.23-.262.324-.54.379-.269-.055-.362-.164-.538-.379-.051-.2-.051-.2-.07-.426a6 6 0 0 0-.192-.992c-.168-.617-.238-1.254-.316-1.887l-.032-.246c-.015-.11-.015-.11-.027-.222-.027-.2-.027-.2-.11-.38-.062-.16-.062-.16-.062-.429a4 4 0 0 1-.258.063c-.359.074-.714.093-1.082.113l-.18.008c-.144.007-.288.011-.433.02v.128q.002 1.551.004 3.102v1.5c0 .437.004.87.004 1.308v2.094c-.008.156-.008.156-.074.36-.184.14-.313.195-.543.23-.25-.04-.313-.106-.47-.3-.03-.165-.03-.165-.03-.356 0-.106 0-.106-.004-.215.004-.117.004-.117.004-.239v-.25c0-.226.004-.457.004-.683q-.001-.352.004-.711 0-.674.003-1.348c.004-.511.004-1.023.008-1.531q0-1.581.012-3.156h-.129c-.191.004-.387.004-.578.008q-.1-.001-.2.004c-.398 0-.734-.032-1.117-.149l.012.223c0 .37-.078.726-.156 1.09q-.047.22-.094.449l-.047.23c-.05.23-.093.457-.14.688q-.022.11-.043.226-.042.207-.082.418-.058.293-.121.586-.024.105-.047.223l-.047.219c-.016.062-.027.129-.043.199-.078.2-.149.265-.336.37-.262.032-.41.04-.637-.105-.234-.367-.074-.882-.008-1.289q.017-.085.028-.171c.043-.247.082-.489.144-.727h.137q.008-.065.016-.129c.175-1.375.175-1.375.257-1.93.008-.062.02-.125.028-.191.039-.2.101-.387.172-.582q-.117-.019-.239-.043c-.558-.125-1.105-.313-1.648-.496q-.017.059-.027.117a5 5 0 0 1-.145.441c-.027.07-.027.07-.059.145-.011.035-.027.07-.039.11h-.136c-.004.05-.012.1-.016.152a4.6 4.6 0 0 1-.445 1.238c-.16.309-.278.633-.395.957-.129.344-.261.68-.406 1.02q-.306.726-.602 1.453-.13.323-.261.644-.069.167-.137.332a25 25 0 0 1-.195.485c-.02.05-.043.097-.063.152-.105.258-.191.441-.445.574-.234.031-.234.031-.469 0-.195-.172-.266-.27-.289-.531.02-.227.07-.383.164-.59q.047-.104.094-.215.045-.104.098-.215c.054-.136.113-.27.167-.406l1.094-2.625.176-.418.246-.594q.031-.068.055-.136.123-.292.27-.567c.163-.32.28-.656.402-.996.078-.21.16-.41.261-.613.106-.18.106-.18.09-.383l-.21-.07c-.376-.137-.716-.348-1.06-.547a6 6 0 0 0-.48-.258q-.069.199-.136.402h-.137q-.02.066-.043.137c-.117.262-.25.512-.426.738h-.137q-.024.077-.054.153c-.075.18-.16.32-.274.48-.144.211-.273.426-.398.653-.149.242-.324.464-.492.691a4 4 0 0 0-.282.453c-.117.2-.117.2-.238.3-.227.052-.394.024-.617-.034-.188-.153-.203-.246-.227-.485.028-.308.14-.484.317-.726l.187-.27c.031-.043.067-.09.098-.136.144-.207.285-.418.422-.625l.168-.25q.193-.294.39-.586l.106-.164q.106-.154.207-.313.232-.345.476-.68c.164-.195.164-.195.145-.414-.148-.144-.148-.144-.336-.285a10 10 0 0 1-.824-.719c-.117-.09-.117-.09-.25-.054-.242.086-.403.285-.578.465l-.133.132q-.219.218-.43.434-.15.148-.3.3-.398.395-.79.794l-.8.804-1.297 1.305q-.333.335-.664.664-.066.07-.137.14l-.274.27c-.14.137-.14.137-.296.332-.176.141-.227.16-.442.168-.265-.035-.265-.035-.433-.101-.13-.168-.145-.309-.137-.52.074-.324.344-.531.574-.754l.172-.172q.236-.235.473-.464.246-.248.492-.489c.312-.308.62-.617.933-.925q.533-.523 1.067-1.051 1.09-1.084 2.187-2.16c-.129-.274-.304-.485-.504-.707-.574-.668-.574-.668-.574-.844-.363.168-.68.363-1.004.594-.265.187-.539.367-.808.546-.078.055-.078.055-.16.11q-.154.1-.313.207-.285.19-.57.379l-.192.125q-.204.14-.402.285c-.106.074-.106.074-.211.152q-.093.066-.187.137c-.254.121-.403.09-.668.027-.13-.074-.13-.074-.204-.203-.035-.219-.05-.332 0-.539.239-.32.645-.52.977-.726.309-.192.613-.399.914-.602.094-.059.094-.059.184-.121q.37-.246.734-.492.174-.113.344-.23l.316-.212q.075-.046.145-.093.06-.04.125-.086c.101-.067.101-.067.238-.133a1.7 1.7 0 0 0-.3-.633 2.3 2.3 0 0 1-.333-.66 2.3 2.3 0 0 0-.176-.39c-.476.081-.91.292-1.355.48-.54.222-1.082.449-1.621.672l-.367.152q-1.05.435-2.098.863-.66.27-1.309.574c-.87.395-.87.395-1.27.356-.241-.176-.323-.277-.378-.574.043-.235.043-.235.191-.387.063-.04.125-.074.188-.117.05-.031.101-.067.156-.098.195-.113.383-.172.598-.234.672-.2.672-.2 1.3-.508.172-.102.333-.168.52-.234.602-.211 1.207-.434 1.77-.73.308-.161.636-.274.96-.395q.463-.173.919-.368c1.062-.464 1.062-.464 1.324-.464q-.03-.082-.059-.168-.036-.106-.074-.22c-.027-.073-.05-.144-.078-.218-.059-.203-.059-.203-.059-.473h-.133c-.066-.367-.066-.367-.136-.742a18 18 0 0 0-1.57.219l-.25.047q-.761.136-1.516.324c-1.239.309-1.239.309-1.637.14-.148-.124-.148-.124-.18-.288.004-.09.004-.09.012-.184.004-.062.004-.121.008-.184.008-.07.008-.07.012-.14.285-.2.507-.285.851-.332.52-.074 1.035-.172 1.547-.274q.239-.047.473-.09a60 60 0 0 0 1.664-.347c.183-.035.183-.035.386-.035l-.066-.258a6.7 6.7 0 0 1-.11-1.082q-.003-.087-.007-.18-.013-.216-.02-.433h-.129c-1.043.003-2.082.011-3.12.011-.505.004-1.008.004-1.512.008q-.655.005-1.317.004c-.23 0-.465.004-.695.004-.258.004-.52.004-.777.004h-.235c-.52 0-.52 0-.789-.16-.14-.168-.156-.243-.14-.461q.006-.083.007-.164l.012-.121c.39-.258.762-.23 1.215-.227h.242c.223 0 .441 0 .664.004h.695c.434 0 .871.004 1.309.004q.751.005 1.496.004l3.074.011c0-.078 0-.078.004-.16l.024-.703q.006-.122.007-.25l.012-.238c0-.106 0-.106.004-.219.016-.183.016-.183.082-.383a39.043 39.043 0 0 0-.434-.062l-.242-.031a9 9 0 0 1-.547-.106c-.484-.11-.976-.191-1.468-.277a9 9 0 0 1-1.203-.29 5 5 0 0 0-.48-.109c-.184-.039-.263-.062-.415-.183-.09-.223-.086-.39-.062-.63.074-.124.074-.124.203-.202.472-.121.89.008 1.355.117q.256.053.512.113l.25.055q.498.11.996.2.082.016.168.034c.547.102 1.09.196 1.637.293l.047-.238c.125-.559.312-1.106.492-1.652l-.149-.024a3 3 0 0 1-.52-.172q-.104-.04-.202-.082c-.11-.043-.11-.043-.223-.09q-.117-.051-.234-.097-.264-.107-.528-.219-.41-.17-.828-.34-.376-.157-.746-.308l-.371-.153q-.262-.106-.523-.219-.079-.029-.157-.062a11 11 0 0 1-.855-.395 5 5 0 0 0-.625-.25 23 23 0 0 1-1.164-.46q-.066-.028-.137-.055c-.254-.114-.45-.223-.621-.442-.04-.234-.04-.234 0-.472.137-.168.137-.168.336-.27.437.024.789.153 1.187.324q.094.036.188.079.306.127.613.261c.145.059.285.117.43.18.3.125.601.254.898.379q1.002.422 2.004.84.31.127.613.254 1.038.434 2.086.851.038-.124.075-.254c.18-.531.445-1.02.734-1.5-.055-.031-.055-.031-.11-.07l-1.117-.734c-.136-.09-.277-.18-.414-.274-1.468-.96-1.468-.96-2.066-1.414q-.072-.045-.148-.098c-.122-.105-.122-.105-.153-.367a.73.73 0 0 1 .137-.445c.242-.149.355-.149.637-.098.171.094.324.207.48.324.207.157.422.301.64.446q.13.082.258.172l.141.093c.34.223.676.45 1.012.672.3.203.3.203.601.403q.152.098.297.203c.211.152.274.18.547.18.117-.11.117-.11.219-.262.219-.301.453-.586.695-.867.11-.141.11-.141.082-.282a1 1 0 0 0-.273-.383q-.07-.068-.14-.144c-.056-.05-.106-.102-.161-.152-.055-.055-.105-.11-.164-.168l-.54-.536-.374-.375q-.446-.437-.89-.882-.843-.834-1.684-1.672-.274-.275-.555-.551-.171-.17-.336-.34c-.055-.05-.105-.101-.16-.152a5 5 0 0 1-.14-.145c-.044-.039-.083-.078-.126-.12-.152-.165-.234-.286-.27-.509.032-.21.032-.21.173-.41.195-.136.195-.136.422-.136.3.082.414.19.624.421l.184.192q.087.098.18.195.165.168.336.336l.238.238.129.13 3.09 3.09.289.288q.18.182.363.371l.211.211c.035.04.07.074.11.113.16.164.265.27.488.344v-.137a8 8 0 0 1 .336-.285c.07-.054.136-.11.207-.164q.363-.287.738-.562a1.4 1.4 0 0 0-.246-.633c-.04-.059-.074-.117-.113-.176q-.062-.088-.125-.183-.064-.096-.13-.196-.2-.304-.406-.61l-.27-.405a42 42 0 0 0-1.112-1.621c-.09-.149-.09-.149-.141-.41.05-.212.05-.212.187-.38.2-.101.2-.101.43-.113.582.192.903.922 1.223 1.418.168.254.34.508.508.762.07.101.136.207.207.308q.175.264.355.528.07.104.14.215c.044.058.083.117.126.18.117.187.215.378.312.577.192-.042.336-.097.504-.203l.13-.082.136-.082c.71-.441.71-.441 1.047-.441-.016-.04-.032-.074-.047-.113q-.622-1.494-1.239-2.993-.284-.697-.578-1.394l-.27-.652q-.135-.322-.265-.637-.069-.165-.136-.328l-.2-.477q-.029-.074-.062-.148c-.02-.043-.035-.09-.055-.137l-.059-.137q-.053-.129-.113-.258c-.125-.289-.183-.496-.144-.812.156-.191.261-.203.504-.238.308.047.375.132.574.37.105.184.183.376.262.571l.07.164q.104.264.215.527.069.171.144.348c.281.684.563 1.371.824 2.063q.293.751.614 1.484c.129.293.254.582.367.879q.159.394.324.781c.082.195.149.395.215.598.426-.055.824-.2 1.23-.332.055-.02.11-.035.168-.055l.153-.05c.133-.036.133-.036.336-.036q-.079-.428-.157-.855a21.401 21.401 0 0 0-.457-2.102c-.086-.34-.12-.691-.164-1.039q-.034-.252-.074-.504c-.031-.258.02-.351.176-.555.066-.066.066-.066.289-.09.25.024.34.055.512.239.168.27.203.594.257.906.012.07.028.137.04.211l.117.621.07.39q.016.09.031.184.067.354.133.707.106.563.207 1.125.046.246.098.493l.12-.012q.276-.031.552-.055c.093-.011.093-.011.191-.02.094-.011.094-.011.188-.019.058-.004.113-.012.171-.015.247-.016.485-.016.73-.012v-.133q-.009-1.558-.015-3.121c0-.504 0-1.004-.004-1.508-.004-.437-.004-.879-.004-1.316-.003-.23-.003-.465-.003-.696q-.005-.392-.004-.777.001-.117-.004-.234c.004-.52.004-.52.16-.79.144-.12.144-.12.344-.152m0 0" style="stroke:none;fill-rule:nonzero;fill:#23201b;fill-opacity:1"/><path d="M68.93 31.031c.226.035.36.098.543.235.082.168.074.28.074.468v2.067c0 .445-.004.886-.004 1.332v1.512c0 1.035-.004 2.074-.004 3.113l.234.012c.102.003.207.011.309.015l.152.008c.426.023.84.082 1.258.164q.011-.116.028-.238c.007-.106.02-.211.03-.317q.013-.076.016-.16.01-.075.02-.152l.016-.14c.027-.138.027-.138.093-.27.075-.153.094-.27.118-.434q.006-.088.019-.176l.023-.183c.07-.547.176-1.07.317-1.602.055-.207.094-.41.129-.617.054-.27.117-.45.34-.629.289-.05.418-.031.671.121.2.32.145.598.067.957l-.063.184c-.093.293-.14.586-.187.89a87 87 0 0 1-.399 2.164q-.08.403-.16.805.079.017.157.04c.418.1.832.21 1.242.343l.144.047q.174.054.344.11c.016-.075.016-.075.027-.15.04-.175.09-.331.153-.5.02-.058.039-.112.062-.171.024-.059.043-.117.067-.18.03-.086.03-.086.066-.18l.164-.437h.137l.012-.184c.074-.53.355-1.03.593-1.5.047-.105.098-.207.145-.312q.03-.074.066-.148c.055-.141.094-.274.125-.415h.137l.023-.18c.043-.226.11-.41.204-.62q.17-.391.316-.793c.137-.356.285-.707.433-1.063l.098-.242c.05-.113.05-.113.098-.23.043-.102.043-.102.086-.211.09-.168.09-.168.289-.301.297-.04.426-.031.676.14.136.196.136.196.125.407a5 5 0 0 1-.286.875 3 3 0 0 1-.062.16c-.11.277-.23.523-.383.777q-.074.177-.137.356c-.03.097-.03.097-.066.195q-.033.093-.066.191l-.204.54h-.136l-.035.144c-.094.355-.192.676-.368 1-.12.27-.23.539-.328.82-.12.34-.258.672-.398 1.004-.223.531-.223.531-.418 1.07h-.137c-.02.204-.043.403-.066.61l.199.082c.289.121.559.273.828.43l.285.164.121.07c.13.07.13.07.317.129l.011-.133c.082-.297.25-.52.426-.77q.112-.164.219-.324.06-.081.113-.168c.153-.222.305-.449.453-.672l.164-.246q.175-.26.344-.52c.047-.07.047-.07.09-.14.059-.082.113-.168.172-.254.473-.718.473-.718.805-.824.238.008.238.008.433.106.153.183.207.304.192.546-.106.348-.352.63-.57.918q-.216.306-.419.618-.085.129-.172.257c-.043.063-.043.063-.085.13l-.344.519q-.087.124-.172.254-.2.303-.406.601c-.078.106-.078.106-.153.215l-.136.192c-.098.156-.098.156-.094.304.117.207.3.328.492.465l.23.172.114.082c.18.137.347.277.52.422.21-.09.35-.2.511-.363.047-.047.094-.098.145-.145.05-.055.101-.105.152-.16l.168-.168q.175-.176.351-.36.282-.283.563-.57l.191-.191q.05-.051.098-.102c.438-.441.871-.879 1.305-1.324q.485-.494.976-.988.186-.186.371-.38c.172-.175.348-.35.52-.526.05-.051.101-.106.152-.157.395-.39.395-.39.719-.398.246.039.246.039.414.144.145.239.145.36.102.637-.153.219-.344.395-.536.582-.082.082-.082.082-.171.168q-.23.228-.465.457-.247.24-.489.48-.567.563-1.136 1.118-.726.71-1.446 1.426-.244.235-.488.476c-.18.176-.36.356-.543.531-.078.078-.078.078-.164.16-.047.047-.098.098-.148.145q-.059.064-.13.129c-.097.117-.097.117-.07.262.082.187.2.304.34.449.262.285.504.578.727.894.289-.039.453-.136.683-.312.235-.18.473-.344.723-.504q.474-.3.93-.617c.09-.063.18-.13.273-.192q.209-.14.418-.289.206-.144.41-.289c.043-.027.082-.058.125-.086.262-.18.438-.246.75-.203.196.102.196.102.34.266.04.234.04.234 0 .473-.289.351-.676.574-1.05.816q-.218.145-.434.285c-.035.027-.074.05-.113.078-.297.192-.586.39-.88.59-.066.047-.066.047-.132.09L83 46.48q-.18.125-.355.243-.103.069-.207.144c-.165.098-.165.098-.297.098l.07.129q.42.768.805 1.554c.421-.074.77-.199 1.156-.382.187-.086.379-.157.574-.227.211-.074.41-.152.606-.258.312-.16.64-.277.972-.398a9 9 0 0 0 1.121-.48c.27-.137.547-.239.832-.337.45-.164.891-.359 1.328-.55q.084-.038.172-.075.166-.073.336-.148c.293-.129.528-.215.856-.176.191.106.191.106.336.27.035.238.035.238 0 .472-.2.246-.407.344-.696.461-.043.016-.082.035-.125.051q-.196.082-.394.156l-.258.106q-.254.104-.508.207c-.351.14-.703.289-1.05.433q-.204.088-.407.168l-.203.086c-2.223.926-2.223.926-2.426 1.012q-.205.084-.406.168-.64.269-1.277.52c.043.289.11.554.199.832.082.254.152.507.21.77.013.054.024.105.036.163q.011.06.027.125.213-.045.426-.086c.129-.027.258-.05.383-.078q.099-.02.203-.039.31-.065.621-.125l.403-.082c.132-.027.269-.05.402-.078a72 72 0 0 0 1.16-.242 9 9 0 0 0 .344-.075c.379-.078.71-.097 1.074.07.105.126.105.126.148.352-.046.262-.097.344-.3.504-.329.18-.704.227-1.067.293-.082.016-.16.035-.246.051q-.661.134-1.328.238c-.363.063-.727.14-1.086.215q-.221.043-.45.09l-.194.04c-.157.03-.157.03-.293.03l.03.117c.09.422.114.825.11 1.258v.168q-.002.206-.004.41h.13c1.042-.007 2.081-.007 3.12-.011.504 0 1.008-.004 1.512-.004q.657-.005 1.313-.004c.234 0 .464 0 .699-.004h.777c.113 0 .113 0 .234-.004q.105-.001.211.004c.094-.004.094-.004.188-.004.21.031.34.098.508.23.074.227.074.227.07.47-.121.19-.207.304-.406.406q-.167.006-.332.007h-.699q-.335.001-.668-.004h-3.543c-1.04-.003-2.075-.003-3.114-.003 0 .078 0 .152.004.234v.309q-.001.075.004.152c0 .43-.05.836-.144 1.258q.07.01.14.027c1 .18 1.996.367 2.988.57.23.047.461.094.692.133q.07.011.14.028l.356.058c.242.07.406.172.605.328.051.235.051.235 0 .473-.203.254-.203.254-.406.336-.5.015-1.015-.13-1.504-.23-.449-.094-.898-.184-1.355-.25-.301-.04-.574-.118-.867-.212a3 3 0 0 0-.606-.09l-.219-.015-.164-.012q-.119.398-.238.797-.03.112-.066.23l-.067.22-.058.199c-.051.175-.051.175-.043.375.07.027.144.05.218.078.883.324.883.324 1.278.535.332.168.687.293 1.039.422q.069.022.137.047l.378.14c.32.121.637.262.95.403q.791.345 1.59.68l.507.214.328.14.153.063a8 8 0 0 0 .91.32c.125.055.125.055.262.258.039.297.035.426-.145.672-.191.137-.191.137-.383.176-.222-.04-.39-.121-.59-.227a4 4 0 0 0-.578-.226c-.543-.192-1.07-.418-1.601-.645q-.445-.193-.883-.379c-.062-.027-.121-.05-.184-.078a145 145 0 0 0-2.32-.957 33 33 0 0 1-1.605-.695c-.02.07-.02.07-.043.14-.141.45-.141.45-.293.602q-.031.074-.055.149c-.09.21-.21.367-.355.543-.075.117-.075.117-.051.246.07.183.152.234.316.343q.082.056.168.11c.059.039.117.082.18.12.062.044.125.083.191.126l.598.398q.2.131.394.262.292.194.579.387c1.324.879 1.324.879 1.472 1.023.008.246.008.438-.07.676-.219.152-.41.156-.672.133-.18-.098-.18-.098-.352-.227q-.083-.064-.171-.129c-.051-.039-.098-.078-.153-.117l-.199-.133v-.136l-.121-.024a1.4 1.4 0 0 1-.422-.21c-.055-.036-.105-.071-.16-.106q-.084-.06-.168-.117l-.176-.118q-.28-.186-.555-.37c-.125-.087-.25-.169-.375-.255q-.464-.31-.921-.62c-.2.097-.317.171-.45.347l-.093.125q-.053.058-.098.129c-.203.265-.398.52-.64.75.093.21.202.351.367.515l.144.145q.075.076.156.152.078.08.16.16.251.252.508.504l.34.34.625.621q.3.295.598.594c.097.098.199.195.297.297q.42.41.836.828l.503.504c.196.191.391.387.586.578.09.094.09.094.184.184.055.054.11.113.168.168l.148.148c.106.121.106.121.106.258h.137c.03.418.03.418-.102.637a.9.9 0 0 1-.559.14c-.312-.074-.511-.328-.73-.554q-.082-.082-.168-.165l-.543-.55-.379-.38q-.395-.397-.789-.796c-.3-.309-.605-.613-.914-.922l-.879-.883-.375-.379q-.263-.263-.52-.527c-.078-.078-.078-.078-.16-.156-.046-.047-.093-.098-.14-.145l-.125-.129c-.086-.11-.086-.11-.086-.312-.32.031-.461.156-.688.375-.312.297-.312.297-.457.297v.136c-.105.086-.105.086-.238.176q-.064.045-.133.09-.05.035-.101.07c.101.301.265.551.445.813q.091.135.184.27.041.068.09.136.191.284.378.567.216.321.442.632c.144.211.144.211.21.422.087.246.22.348.407.531.402.493.402.493.402.868-.066.21-.066.21-.203.41-.371.09-.371.09-.539.066-.258-.203-.426-.488-.605-.765l-.211-.32q-.064-.095-.121-.188l-.75-1.13q-.135-.198-.27-.401-.082-.126-.168-.25-.036-.06-.074-.118-.275-.404-.563-.8c-.297.085-.539.203-.804.367-.285.172-.567.32-.88.441.134.422.294.832.47 1.242q.068.17.144.34.033.077.066.16.105.246.2.493c.136.34.28.671.433 1.007q.174.397.324.805.135.359.282.71.152.381.304.767.066.17.137.347c.024.055.043.114.067.172q.198.496.433.98c.149.32.258.57.242.926-.168.254-.277.325-.57.395-.305-.07-.387-.18-.555-.434a6 6 0 0 1-.36-.836q-.08-.2-.163-.394c-.027-.07-.059-.137-.086-.207-.059-.137-.113-.274-.172-.406-.18-.418-.324-.832-.453-1.27a10 10 0 0 0-.406-1.023c-.055-.137-.114-.27-.168-.407l-.082-.199q-.087-.205-.172-.41a22 22 0 0 0-.43-.988 14 14 0 0 1-.496-1.301q-.053.017-.113.035-.264.084-.528.16c-.058.02-.117.035-.18.055q-.525.159-1.066.289.079.427.157.855c.015.082.03.16.043.243q.127.703.296 1.402c.059.266.106.535.149.805.02.136.043.277.07.414.137.777.137.777.094 1.066-.164.23-.262.324-.54.379-.269-.055-.362-.164-.538-.379-.051-.2-.051-.2-.07-.426a6 6 0 0 0-.192-.992c-.168-.617-.238-1.254-.316-1.887l-.032-.246c-.015-.11-.015-.11-.027-.222-.027-.2-.027-.2-.11-.38-.062-.16-.062-.16-.062-.429a4 4 0 0 1-.258.063c-.359.074-.714.093-1.082.113l-.18.008c-.144.007-.288.011-.433.02v.128q.002 1.551.004 3.102v1.5c0 .437.004.87.004 1.308v2.094c-.008.156-.008.156-.074.36-.184.14-.313.195-.543.23-.25-.04-.313-.106-.47-.3-.03-.165-.03-.165-.03-.356 0-.106 0-.106-.004-.215.004-.117.004-.117.004-.239v-.25c0-.226.004-.457.004-.683q-.001-.352.004-.711 0-.674.003-1.348c.004-.511.004-1.023.008-1.531q0-1.581.012-3.156h-.129c-.191.004-.387.004-.578.008q-.1-.001-.2.004c-.398 0-.734-.032-1.117-.149l.012.223c0 .37-.078.726-.156 1.09q-.047.22-.094.449l-.047.23c-.05.23-.093.457-.14.688q-.022.11-.043.226-.042.207-.082.418-.058.293-.121.586-.024.105-.047.223l-.047.219c-.016.062-.027.129-.043.199-.078.2-.149.265-.336.37-.262.032-.41.04-.637-.105-.234-.367-.074-.882-.008-1.289q.017-.085.028-.171c.043-.247.082-.489.144-.727h.137q.008-.065.016-.129c.175-1.375.175-1.375.257-1.93.008-.062.02-.125.028-.191.039-.2.101-.387.172-.582q-.117-.019-.239-.043c-.558-.125-1.105-.313-1.648-.496q-.017.059-.027.117a5 5 0 0 1-.145.441c-.027.07-.027.07-.059.145-.011.035-.027.07-.039.11h-.136c-.004.05-.012.1-.016.152a4.6 4.6 0 0 1-.445 1.238c-.16.309-.278.633-.395.957-.129.344-.261.68-.406 1.02q-.306.726-.602 1.453-.13.323-.261.644-.069.167-.137.332a25 25 0 0 1-.195.485c-.02.05-.043.097-.063.152-.105.258-.191.441-.445.574-.234.031-.234.031-.469 0-.195-.172-.266-.27-.289-.531.02-.227.07-.383.164-.59q.047-.104.094-.215.045-.104.098-.215c.054-.136.113-.27.167-.406l1.094-2.625.176-.418.246-.594q.031-.068.055-.136.123-.292.27-.567c.163-.32.28-.656.402-.996.078-.21.16-.41.261-.613.106-.18.106-.18.09-.383l-.21-.07c-.376-.137-.716-.348-1.06-.547a6 6 0 0 0-.48-.258q-.069.199-.136.402h-.137q-.02.066-.043.137c-.117.262-.25.512-.426.738h-.137q-.024.077-.054.153c-.075.18-.16.32-.274.48-.144.211-.273.426-.398.653-.149.242-.324.464-.492.691a4 4 0 0 0-.282.453c-.117.2-.117.2-.238.3-.227.052-.394.024-.617-.034-.188-.153-.203-.246-.227-.485.028-.308.14-.484.317-.726l.187-.27c.031-.043.067-.09.098-.136.144-.207.285-.418.422-.625l.168-.25q.193-.294.39-.586l.106-.164q.106-.154.207-.313.232-.345.476-.68c.164-.195.164-.195.145-.414-.148-.144-.148-.144-.336-.285a10 10 0 0 1-.824-.719c-.117-.09-.117-.09-.25-.054-.242.086-.403.285-.578.465l-.133.132q-.219.218-.43.434-.15.148-.3.3-.398.395-.79.794l-.8.804-1.297 1.305q-.333.335-.664.664-.066.07-.137.14l-.274.27c-.14.137-.14.137-.296.332-.176.141-.227.16-.442.168-.265-.035-.265-.035-.433-.101-.13-.168-.145-.309-.137-.52.074-.324.344-.531.574-.754l.172-.172q.236-.235.473-.464.246-.248.492-.489c.312-.308.62-.617.933-.925q.533-.523 1.067-1.051 1.09-1.084 2.187-2.16c-.129-.274-.304-.485-.504-.707-.574-.668-.574-.668-.574-.844-.363.168-.68.363-1.004.594-.265.187-.539.367-.808.546-.078.055-.078.055-.16.11q-.154.1-.313.207-.285.19-.57.379l-.192.125q-.204.14-.402.285c-.106.074-.106.074-.211.152q-.093.066-.187.137c-.254.121-.403.09-.668.027-.13-.074-.13-.074-.204-.203-.035-.219-.05-.332 0-.539.239-.32.645-.52.977-.726.309-.192.613-.399.914-.602.094-.059.094-.059.184-.121q.37-.246.734-.492.174-.113.344-.23l.316-.212q.075-.046.145-.093.06-.04.125-.086c.101-.067.101-.067.238-.133a1.7 1.7 0 0 0-.3-.633 2.3 2.3 0 0 1-.333-.66 2.3 2.3 0 0 0-.176-.39c-.476.081-.91.292-1.355.48-.54.222-1.082.449-1.621.672l-.367.152q-1.05.435-2.098.863-.66.27-1.309.574c-.87.395-.87.395-1.27.356-.241-.176-.323-.277-.378-.574.043-.235.043-.235.191-.387.063-.04.125-.074.188-.117.05-.031.101-.067.156-.098.195-.113.383-.172.598-.234.672-.2.672-.2 1.3-.508.172-.102.333-.168.52-.234.602-.211 1.207-.434 1.77-.73.308-.161.636-.274.96-.395q.463-.173.919-.368c1.062-.464 1.062-.464 1.324-.464q-.03-.082-.059-.168-.036-.106-.074-.22c-.027-.073-.05-.144-.078-.218-.059-.203-.059-.203-.059-.473h-.133c-.066-.367-.066-.367-.136-.742a18 18 0 0 0-1.57.219l-.25.047q-.761.136-1.516.324c-1.239.309-1.239.309-1.637.14-.148-.124-.148-.124-.18-.288.004-.09.004-.09.012-.184.004-.062.004-.121.008-.184.008-.07.008-.07.012-.14.285-.2.507-.285.851-.332.52-.074 1.035-.172 1.547-.274q.239-.047.473-.09a60 60 0 0 0 1.664-.347c.183-.035.183-.035.386-.035l-.066-.258a6.7 6.7 0 0 1-.11-1.082q-.003-.087-.007-.18-.013-.216-.02-.433h-.129c-1.043.003-2.082.011-3.12.011-.505.004-1.008.004-1.512.008q-.655.005-1.317.004c-.23 0-.465.004-.695.004-.258.004-.52.004-.777.004h-.235c-.52 0-.52 0-.789-.16-.14-.168-.156-.243-.14-.461q.006-.083.007-.164l.012-.121c.39-.258.762-.23 1.215-.227h.242c.223 0 .441 0 .664.004h.695c.434 0 .871.004 1.309.004q.751.005 1.496.004l3.074.011c0-.078 0-.078.004-.16l.024-.703q.006-.122.007-.25l.012-.238c0-.106 0-.106.004-.219.016-.183.016-.183.082-.383a39.043 39.043 0 0 0-.434-.062l-.242-.031a9 9 0 0 1-.547-.106c-.484-.11-.976-.191-1.468-.277a9 9 0 0 1-1.203-.29 5 5 0 0 0-.48-.109c-.184-.039-.263-.062-.415-.183-.09-.223-.086-.39-.062-.63.074-.124.074-.124.203-.202.472-.121.89.008 1.355.117q.256.053.512.113l.25.055q.498.11.996.2.082.016.168.034c.547.102 1.09.196 1.637.293l.047-.238c.125-.559.312-1.106.492-1.652l-.149-.024a3 3 0 0 1-.52-.172q-.104-.04-.202-.082c-.11-.043-.11-.043-.223-.09q-.117-.051-.234-.097-.264-.107-.528-.219-.41-.17-.828-.34-.376-.157-.746-.308l-.371-.153q-.262-.106-.523-.219-.079-.029-.157-.062a11 11 0 0 1-.855-.395 5 5 0 0 0-.625-.25 23 23 0 0 1-1.164-.46q-.066-.028-.137-.055c-.254-.114-.45-.223-.621-.442-.04-.234-.04-.234 0-.472.137-.168.137-.168.336-.27.437.024.789.153 1.187.324q.094.036.188.079.306.127.613.261c.145.059.285.117.43.18.3.125.601.254.898.379q1.002.422 2.004.84.31.127.613.254 1.038.434 2.086.851.038-.124.075-.254c.18-.531.445-1.02.734-1.5-.055-.031-.055-.031-.11-.07l-1.117-.734c-.136-.09-.277-.18-.414-.274-1.468-.96-1.468-.96-2.066-1.414q-.072-.045-.148-.098c-.122-.105-.122-.105-.153-.367a.73.73 0 0 1 .137-.445c.242-.149.355-.149.637-.098.171.094.324.207.48.324.207.157.422.301.64.446q.13.082.258.172l.141.093c.34.223.676.45 1.012.672.3.203.3.203.601.403q.152.098.297.203c.211.152.274.18.547.18.117-.11.117-.11.219-.262.219-.301.453-.586.695-.867.11-.141.11-.141.082-.282a1 1 0 0 0-.273-.383q-.07-.068-.14-.144c-.056-.05-.106-.102-.161-.152-.055-.055-.105-.11-.164-.168l-.54-.536-.374-.375q-.446-.437-.89-.882-.843-.834-1.684-1.672-.274-.275-.555-.551-.171-.17-.336-.34c-.055-.05-.105-.101-.16-.152a5 5 0 0 1-.14-.145c-.044-.039-.083-.078-.126-.12-.152-.165-.234-.286-.27-.509.032-.21.032-.21.173-.41.195-.136.195-.136.422-.136.3.082.414.19.624.421l.184.192q.087.098.18.195.165.168.336.336l.238.238.129.13 3.09 3.09.289.288q.18.182.363.371l.211.211c.035.04.07.074.11.113.16.164.265.27.488.344v-.137a8 8 0 0 1 .336-.285c.07-.054.136-.11.207-.164q.363-.287.738-.562a1.4 1.4 0 0 0-.246-.633c-.04-.059-.074-.117-.113-.176q-.062-.088-.125-.183-.064-.096-.13-.196-.2-.304-.406-.61l-.27-.405a42 42 0 0 0-1.112-1.621c-.09-.149-.09-.149-.141-.41.05-.212.05-.212.187-.38.2-.101.2-.101.43-.113.582.192.903.922 1.223 1.418.168.254.34.508.508.762.07.101.136.207.207.308q.175.264.355.528.07.104.14.215c.044.058.083.117.126.18.117.187.215.378.312.577.192-.042.336-.097.504-.203l.13-.082.136-.082c.71-.441.71-.441 1.047-.441-.016-.04-.032-.074-.047-.113q-.622-1.494-1.239-2.993-.284-.697-.578-1.394l-.27-.652q-.135-.322-.265-.637-.069-.165-.136-.328l-.2-.477q-.029-.074-.062-.148c-.02-.043-.035-.09-.055-.137l-.059-.137q-.053-.129-.113-.258c-.125-.289-.183-.496-.144-.812.156-.191.261-.203.504-.238.308.047.375.132.574.37.105.184.183.376.262.571l.07.164q.104.264.215.527.069.171.144.348c.281.684.563 1.371.824 2.063q.293.751.614 1.484c.129.293.254.582.367.879q.159.394.324.781c.082.195.149.395.215.598.426-.055.824-.2 1.23-.332.055-.02.11-.035.168-.055l.153-.05c.133-.036.133-.036.336-.036q-.079-.428-.157-.855a21.401 21.401 0 0 0-.457-2.102c-.086-.34-.12-.691-.164-1.039q-.034-.252-.074-.504c-.031-.258.02-.351.176-.555.066-.066.066-.066.289-.09.25.024.34.055.512.239.168.27.203.594.257.906.012.07.028.137.04.211l.117.621.07.39q.016.09.031.184.067.354.133.707.106.563.207 1.125.046.246.098.493l.12-.012q.276-.031.552-.055c.093-.011.093-.011.191-.02.094-.011.094-.011.188-.019.058-.004.113-.012.171-.015.247-.016.485-.016.73-.012v-.133q-.009-1.558-.015-3.121c0-.504 0-1.004-.004-1.508-.004-.437-.004-.879-.004-1.316-.003-.23-.003-.465-.003-.696q-.005-.392-.004-.777.001-.117-.004-.234c.004-.52.004-.52.16-.79.144-.12.144-.12.344-.152m-2.082 9.914-.293.047c-2.59.387-4.899 1.551-6.895 3.211-.16.133-.16.133-.316.246-.04.028-.074.059-.114.09v.137l-.117.047c-.582.324-1.027.984-1.433 1.504l-.153.191c-.504.66-.972 1.344-1.332 2.098q-.051.088-.11.18c-.093.16-.16.32-.226.492q-.03.034-.066.07-.006.165 0 .336h-.137c-.254.804-.504 1.613-.738 2.426-.027.082-.05.16-.074.246a2.7 2.7 0 0 0-.098.613c-.016.203-.031.36-.098.555-.086.593-.082 1.191-.082 1.785v.144c.004 1.153.106 2.219.418 3.328l.055.215c.09.348.203.668.352.996q.053.183.113.368c.176.535.43 1.023.691 1.52q.034.067.075.136a14.7 14.7 0 0 0 2.062 2.93l.242.277c.285.332.59.62.926.902q.093.083.191.172c.989.867 2.121 1.566 3.313 2.121q.082.036.168.078c1.555.684 3.312 1.137 5.016 1.149h.597q.299.002.602.004c1.058.007 2.078-.094 3.101-.383q.076-.02.157-.043c.644-.18 1.28-.367 1.878-.672l.22-.09c1.46-.621 2.706-1.5 3.894-2.539l.156-.133a6 6 0 0 0 .734-.738q.117-.136.239-.266c.648-.695 1.175-1.507 1.699-2.297q.069-.104.137-.203v-.27h.132c.192-.362.34-.722.477-1.109.074-.199.172-.386.266-.574.074-.203.136-.406.203-.61q.03-.098.066-.202c.426-1.344.64-2.668.633-4.078v-.582a12.2 12.2 0 0 0-.23-2.415h-.133c.007-.125.007-.125.011-.257 0-.383-.097-.72-.215-1.082-.03-.102-.03-.102-.062-.203-.613-1.899-1.586-3.567-2.902-5.06q-.061-.073-.121-.148c-2.204-2.597-5.657-4.421-9.055-4.73-1.258-.094-2.574-.14-3.824.07m0 0" style="stroke:none;fill-rule:nonzero;fill:#f19a28;fill-opacity:1"/><path d="M68.723 46.055h.504c1-.004 1.945.183 2.886.523q.082.03.168.063c2.14.789 3.86 2.453 4.938 4.437a7 7 0 0 1 .254.598c.203.496.386.98.46 1.515.028.188.028.188.098.422.07.282.086.551.086.84v.472q.002.236.004.477c.004.864-.062 1.73-.437 2.528-.07.164-.07.164-.086.379-.11.683-.578 1.32-.985 1.863q-.117.168-.234.344c-.332.472-.652.914-1.102 1.285-.164.136-.316.281-.468.426-.34.308-.7.546-1.094.777l-.121.074a9.1 9.1 0 0 1-6.278 1.137l-.136-.024c-1.7-.316-3.2-1.152-4.446-2.332-.082-.078-.082-.078-.168-.156-.785-.75-1.355-1.648-1.855-2.61l-.086-.163c-.336-.711-.531-1.492-.66-2.262-.024-.223-.024-.223-.13-.402a11 11 0 0 1-.01-.508v-.485c0-.164-.005-.332-.005-.496v-.468c0-.297.043-.532.149-.805q.047-.217.09-.438c.117-.554.261-1.14.52-1.652h.132c.008-.039.02-.078.027-.121.133-.527.395-.926.715-1.363q.06-.078.117-.16c1.266-1.676 2.922-2.844 4.938-3.41q.112-.036.23-.07c.664-.192 1.293-.243 1.985-.235m0 0" style="stroke:none;fill-rule:nonzero;fill:#23201b;fill-opacity:1"/><path d="M77.531 86.309h.176q.262.004.523.007c.051 0 .102.004.157.004.582.012 1.074.07 1.597.336q.129.053.258.114c.578.27 1.047.562 1.492 1.03l.188.188c.683.973.789 1.969.781 3.121v.36q-.002.486-.004.972v1.016c-.004.645-.004 1.285-.008 1.926 0 .73 0 1.465-.004 2.195q0 2.251-.007 4.508h-3.438c0-.379-.004-.758-.004-1.148q-.007-1.871-.015-3.747a438 438 0 0 1-.008-2.27q-.007-.99-.008-1.98c-.004-.347-.004-.699-.004-1.046q-.004-.492-.008-.989v-1c-.004-.246-.015-.347-.156-.554-.305-.137-.598-.16-.93-.16q-.073-.005-.148-.004h-.313q-.236-.004-.472-.008-.153-.002-.305-.004-.07.001-.14-.004a.96.96 0 0 0-.708.273c-.148.188-.136.395-.132.621q-.005.082-.004.157v.886c-.004.336 0 .672 0 1.008q.001.526-.004 1.051c0 .664-.004 1.328 0 1.988q-.002 1.135-.004 2.27-.008 2.326-.004 4.66h-3.437V89.484a2.45 2.45 0 0 0-1.2-.296q-.085-.002-.172-.004l-.539-.012q-.18-.001-.363-.008c-.297-.004-.598-.012-.894-.016q-.031.064-.063.13c-.074.14-.074.14-.14.206-.008.16-.008.32-.008.485q-.005.074-.004.156v.516q-.002.189-.004.37c0 .337-.004.677-.004 1.012q-.002.526-.004 1.051l-.012 1.996q-.004 1.137-.008 2.274L69 102.016h-3.367q-.005-2.317-.004-4.633c0-.719-.004-1.434-.004-2.153v-3.804q.001-.17-.004-.344v-.73c.012-.196.012-.196.078-.262.008-.13.02-.262.028-.39.082-1.067.53-1.747 1.32-2.438.058-.055.058-.055.121-.11.95-.761 2.379-.804 3.543-.793h.152c.785.004 1.547.055 2.317.227v.137c.047.007.093.011.144.02.211.05.356.136.54.253.366.203.652.274 1.066.2.207-.083.207-.083.406-.204l.309-.129c1.421-.558 1.421-.558 1.886-.554m0 0" style="stroke:none;fill-rule:nonzero;fill:#faf1dc;fill-opacity:1"/><path d="M45.852 86.313h.976q.404.004.813.003v.137c.082.008.16.016.246.02l.324.035.164.012c.371.039.672.125 1.016.27l.156.062.316.14v.133c.043.016.09.027.137.043.559.258 1.14.746 1.414 1.305.012.07.012.07.027.14.032.14.032.14.168.242.184.204.22.403.258.668l.024.153c.175 1.172.152 2.476-.477 3.515h-.137c-.015.051-.035.098-.054.153-.078.183-.078.183-.192.324-.105.121-.105.121-.074.25.066.187.164.332.273.492.41.63.68 1.309.668 2.067v.9179999999999999c-.003 1.39-.003 1.39-.214 1.793a5 5 0 0 0-.067.234 2.3 2.3 0 0 1-.203.508h-.137q-.021.071-.05.148c-.09.203-.196.332-.344.496l-.14.153-.138.144c-.07.078-.07.078-.144.156-.125.114-.125.114-.262.114v.136c-.539.332-1.097.489-1.719.614l-.16.035c-.699.144-1.383.176-2.093.176h-.145c-.71 0-1.387-.043-2.082-.22-.066-.015-.066-.015-.137-.034-.414-.098-.82-.203-1.21-.371v-.133q-.081-.022-.169-.043a2.2 2.2 0 0 1-.773-.496v-.203l-.113-.047c-.547-.309-.774-.871-.95-1.45-.168-.613-.175-1.234-.175-1.867v-.136c0-.797.086-1.442.43-2.16.03-.083.066-.169.1-.25.102-.223.2-.383.372-.56h.2a1.27 1.27 0 0 0-.329-.628c-.668-.75-.715-1.742-.71-2.703 0-.086-.005-.172-.005-.266 0-1.133.336-2.039 1.106-2.867a3.2 3.2 0 0 1 1.152-.746q.129-.066.258-.137c.305-.156.617-.21.953-.265l.379-.07c.492-.095.969-.141 1.473-.138M58.71 86.348h.2c1.227 0 2.36.132 3.488.644v.133c.043.016.086.027.133.043.676.309 1.332.926 1.594 1.629.23.66.375 1.281.371 1.98v.172a5.2 5.2 0 0 1-.144 1.23q-.03.123-.059.25a5.6 5.6 0 0 1-.348.762h-.133c-.007.051-.011.098-.019.153-.05.183-.05.183-.191.324-.063.062-.063.062-.125.129.02.242.144.39.289.578.254.352.39.695.515 1.105l.059.18c.148.543.176 1.055.168 1.617v.254c-.004.582-.024 1.133-.293 1.656q-.03.118-.067.235a2.3 2.3 0 0 1-.203.508h-.133q-.028.071-.05.148c-.09.203-.196.336-.344.5l-.133.152c-.148.141-.148.141-.328.25-.176.082-.176.082-.223.297-.52.344-1.105.489-1.71.614l-.157.035c-.719.148-1.426.172-2.156.168h-.238a8 8 0 0 1-1.2-.078v-.133q-.07.001-.152-.004c-1.062-.047-2.16-.395-2.945-1.14a5 5 0 0 1-.942-1.755q-.034-.106-.074-.218a2.7 2.7 0 0 1-.078-.707V97.8c0-.09.004-.176.004-.27v-.261c.008-2.067.008-2.067.508-2.715q.117-.115.246-.22.07-.134.133-.269c.066-.035.066-.035.136-.066a1.04 1.04 0 0 0-.265-.395c-.223-.234-.344-.496-.344-.82h-.133l-.129-.367a3 3 0 0 1-.074-.203c-.348-1.254-.168-2.602.375-3.766.621-1.066 1.645-1.554 2.793-1.863q.1-.024.2-.055c.726-.176 1.437-.187 2.179-.183m0 0" style="stroke:none;fill-rule:nonzero;fill:#fbf1dc;fill-opacity:1"/><path d="m72.57 41.238.282.075c3.64.984 6.789 3.496 8.671 6.742.696 1.226 1.59 2.863 1.493 4.3h.132c.176.922.243 1.817.239 2.754v.2c-.004 1.261-.035 2.62-.575 3.785q-.053.18-.101.363c-.137.527-.3 1-.555 1.484-.113.235-.207.473-.3.711-.051.137-.051.137-.122.274h-.132q-.01.086-.02.18c-.059.257-.152.359-.316.558-.086.125-.164.25-.246.371a14 14 0 0 1-1.438 1.84 7 7 0 0 0-.344.398 6 6 0 0 1-.738.696c-.082.074-.082.074-.168.148-1.184 1.02-2.535 1.86-3.996 2.418-.145.059-.281.125-.422.192-1.512.68-3.203.84-4.84.835h-.203c-1.016 0-1.98-.05-2.973-.292q-.076-.017-.16-.04a19 19 0 0 1-1.953-.574l-.2-.07a4 4 0 0 1-.85-.395q-.189-.094-.372-.187a13.5 13.5 0 0 1-2.894-2.008 9 9 0 0 0-.352-.305 4 4 0 0 1-.453-.449 10 10 0 0 0-.375-.426c-.848-.902-1.504-1.945-2.094-3.027q-.036-.07-.074-.14c-.351-.645-.605-1.301-.82-2.004-.11-.344-.223-.684-.352-1.02a6.5 6.5 0 0 1-.21-.898l-.024-.137c-.125-.73-.145-1.461-.145-2.2v-.421c0-1.301 0-1.301.145-1.735q.012-.162.02-.32c.058-.684.273-1.332.515-1.969.156-.445.277-.898.406-1.351h.137c-.004-.055-.004-.106-.008-.16.008-.176.008-.176.145-.313.043-.11.09-.223.133-.336.378-.816.867-1.578 1.414-2.293q.063-.075.125-.164c.378-.484.8-.937 1.222-1.383q.076-.08.153-.16c.117-.11.117-.11.253-.11v-.136c.235-.215.489-.41.739-.605l.199-.153c1.184-.906 2.492-1.687 3.91-2.16q.218-.07.434-.152c2.5-.856 5.511-.938 8.058-.23m-9.164 2.36c-.09.039-.09.039-.18.082-.937.437-1.804 1.054-2.581 1.734-.06.05-.114.102-.172.152-.598.528-1.192 1.079-1.649 1.739v.133h-.133a8 8 0 0 0-.324.472c-.031.047-.062.09-.094.14l-.175.274q-.1.153-.2.301c-.156.234-.218.344-.218.633h-.133l-.07.402h-.133a2 2 0 0 0-.067.18l-.09.234q-.044.116-.09.23c-.09.235-.09.235-.195.438-.203.41-.285.828-.367 1.274-.117.62-.117.62-.207.922-.125.453-.14.906-.14 1.374 0 .055-.004.114-.004.172v.895c-.004 1.289.214 2.469.582 3.703l.058.2c.106.34.219.656.387.972.062.113.113.234.164.355.613 1.41 1.563 2.676 2.664 3.743q.083.08.164.168l.172.168.129.124c2.531 2.38 5.855 3.262 9.25 3.188a11 11 0 0 0 1.672-.21q.075-.02.152-.032c.871-.18 1.781-.395 2.567-.817q.21-.116.421-.214a12 12 0 0 0 1.649-.961c.2-.133.2-.133.332-.204v-.132q.069-.023.137-.04c.285-.136.48-.34.707-.554q.064-.064.132-.129.36-.34.707-.691.088-.093.18-.18c.504-.523.91-1.086 1.309-1.691.12-.176.242-.348.383-.508.43-.512.62-1.192.847-1.813l.117-.312c.23-.594.387-1.211.536-1.832l.035-.137c.515-2.133.164-4.512-.504-6.559-.024-.066-.043-.136-.067-.203a8.5 8.5 0 0 0-.543-1.254 4 4 0 0 1-.101-.215 9.6 9.6 0 0 0-.844-1.402q-.07-.099-.14-.203a14 14 0 0 0-1.208-1.414c-.082-.09-.082-.09-.168-.18-.644-.66-1.359-1.199-2.12-1.707l-.18-.125c-.735-.488-1.559-.851-2.383-1.156l-.18-.07c-1.406-.52-2.785-.696-4.273-.696h-.172c-1.848 0-3.684.407-5.348 1.239m0 0" style="stroke:none;fill-rule:nonzero;fill:#221f1a;fill-opacity:1"/><path d="M87.996 90.883h.188q.195-.005.39-.004.299-.001.59-.008c1.563-.012 2.785.317 3.95 1.406.695.739.929 1.664.917 2.657v.238q-.002.252-.004.504-.005.374-.004.754c-.007 2.906-.007 2.906-.765 3.902-.02.055-.035.11-.055.164-.156.34-.523.508-.82.715l-.149.113c-.445.336-.937.434-1.468.559l-.243.07c-1.507.422-3.539.192-4.914-.562-.976-.614-1.445-1.504-1.722-2.606-.082-.39-.082-.773-.082-1.172v-.238q-.001-.247.004-.5.001-.374-.004-.754c0-1.535.015-2.957 1.136-4.14.18-.172.329-.258.567-.34q.128-.083.25-.164c.441-.282.945-.38 1.453-.48.266-.067.488-.11.785-.114M104.242 90.813q.083-.005.172-.004c1.191-.02 2.281-.032 3.398.425l.32.118c.513.187.977.367 1.298.828l.144.207c.395.593.473 1.082.473 1.777v1.852q.002.498.004.996v1.1400000000000001c.008 1.66.008 1.66-.367 2.094l-.13.149q-.061.07-.124.14c-.043.063-.043.063-.09.125-.645.863-1.805 1.172-2.817 1.332-.527.067-1.054.067-1.585.059q-.307-.001-.614.004c-.96 0-1.816-.11-2.719-.465-.128-.047-.128-.047-.265-.074-.211-.059-.32-.215-.469-.375-.05-.047-.105-.098-.16-.145-.297-.32-.637-.695-.715-1.137h-.137a4.02 4.02 0 0 1 .204-2.828 3.7 3.7 0 0 1 .609-.672c.058-.062.058-.062.125-.12.46-.43 1.004-.61 1.61-.762a4 4 0 0 0 .202-.055c.43-.106.852-.18 1.29-.234.538-.07 1.038-.208 1.554-.38l.211-.07c.305-.105.543-.207.8-.402h.138c-.07-.3-.07-.3-.137-.606a12 12 0 0 0-1.48-.093q-.147.001-.294-.004-.214-.004-.43-.008c-.085 0-.167 0-.257-.004-.313.055-.414.156-.637.379-.156.23-.172.398-.203.672a6 6 0 0 1-1.332-.102q-.088-.018-.176-.03c-.187-.036-.37-.067-.558-.103a69 69 0 0 0-1.305-.234c0-.129-.004-.258-.004-.383q.001-.11-.004-.215c.024-.578.238-1.003.613-1.425q.064-.073.133-.145c.274-.293.496-.465.88-.597q.191-.082.378-.168c.785-.329 1.61-.442 2.453-.457m0 0" style="stroke:none;fill-rule:nonzero;fill:#fbf1dc;fill-opacity:1"/><path d="M68.723 46.055h.504c1-.004 1.945.183 2.886.523q.082.03.168.063c2.14.789 3.86 2.453 4.938 4.437a7 7 0 0 1 .254.598c.203.496.386.98.46 1.515.028.188.028.188.098.422.07.282.086.551.086.84v.472q.002.236.004.477c.004.864-.062 1.73-.437 2.528-.07.164-.07.164-.086.379-.11.683-.578 1.32-.985 1.863q-.117.168-.234.344c-.332.472-.652.914-1.102 1.285-.164.136-.316.281-.468.426-.34.308-.7.546-1.094.777l-.121.074a9.1 9.1 0 0 1-6.278 1.137l-.136-.024c-1.7-.316-3.2-1.152-4.446-2.332-.082-.078-.082-.078-.168-.156-.785-.75-1.355-1.648-1.855-2.61l-.086-.163c-.336-.711-.531-1.492-.66-2.262-.024-.223-.024-.223-.13-.402a11 11 0 0 1-.01-.508v-.485c0-.164-.005-.332-.005-.496v-.468c0-.297.043-.532.149-.805q.047-.217.09-.438c.117-.554.261-1.14.52-1.652h.132c.008-.039.02-.078.027-.121.133-.527.395-.926.715-1.363q.06-.078.117-.16c1.266-1.676 2.922-2.844 4.938-3.41q.112-.036.23-.07c.664-.192 1.293-.243 1.985-.235m-1.746 1.789-.165.043a6.86 6.86 0 0 0-2.664 1.437c-.054.043-.105.09-.16.133-.668.574-1.336 1.297-1.726 2.09v.27h-.137c-.266.648-.512 1.257-.605 1.956l-.036.11c-.043.219-.043.437-.043.66V55c0 .156-.004.309-.004.465-.003.824.09 1.52.418 2.281l.06.16c.698 1.89 2.179 3.383 3.983 4.235.993.449 1.965.617 3.055.613h.262c1.3-.016 2.398-.406 3.558-.965v-.133c.047-.02.098-.035.145-.054 1.113-.48 2.039-1.602 2.617-2.641v-.137h.137c.805-1.523 1.25-3.492.738-5.187q-.036-.16-.074-.313l-.082-.328c-.016-.055-.027-.11-.043-.164a4.3 4.3 0 0 0-.406-1.016l-.09-.183c-.91-1.75-2.508-3.02-4.356-3.656a7.5 7.5 0 0 0-2.289-.352c-.14-.004-.277-.004-.418-.008a5.8 5.8 0 0 0-1.675.227m0 0" style="stroke:none;fill-rule:nonzero;fill:#23201b;fill-opacity:1"/><path d="M74.324 43.531q.136.064.266.13a11.4 11.4 0 0 1 2.558 1.648c1.457 1.191 2.66 2.632 3.442 4.351l.113.238a11.8 11.8 0 0 1 1.031 3.602c.012.066.012.066.02.133.324 2.48-.164 4.969-1.23 7.215q-.048.093-.094.191c-.145.305-.301.555-.516.82-.082.118-.164.243-.246.364-.48.722-1.02 1.382-1.637 1.992q-.087.086-.176.18c-.738.753-.738.753-1.175 1.035h-.133v.132c-.195.149-.41.274-.617.399q-.129.075-.258.156c-.633.39-1.262.727-1.953.996l-.14.059q-.2.075-.4.144-.109.037-.218.079c-.785.265-1.59.402-2.41.527-.086.012-.168.027-.254.039-.422.05-.852.043-1.277.047h-.137c-.805 0-1.586-.067-2.375-.219-.086-.02-.086-.02-.172-.035-2.41-.465-4.973-1.762-6.578-3.66a13 13 0 0 0-.45-.492c-.609-.672-1.101-1.434-1.562-2.215-.055-.098-.055-.098-.113-.196a6.4 6.4 0 0 1-.496-1.109 8 8 0 0 0-.196-.496c-.593-1.5-.77-2.988-.77-4.594v-.176c0-.855.079-1.652.302-2.48.066-.254.129-.504.164-.766.027-.203.07-.36.148-.543q.04-.088.074-.175c.11-.254.227-.504.344-.758.063-.145.106-.278.14-.434h.134l.07-.402h.133l.011-.137c.079-.281.223-.492.38-.734l.09-.145.175-.27.164-.253c.059-.098.125-.188.191-.282h.133c.028-.054.028-.054.051-.113.73-1.363 2.25-2.383 3.523-3.187q.1-.069.211-.137a7 7 0 0 1 1.262-.598c.188-.066.371-.144.55-.222 3.048-1.274 6.97-1.184 9.903.351M61.461 46.11a5 5 0 0 1-.297.223c-.039.031-.074.063-.117.094v.136q-.051.02-.11.043a2.1 2.1 0 0 0-.562.497v.132q-.099.036-.203.07-.186.216-.356.442-.05.065-.101.129-.101.129-.195.258l-.211.27c-.399.507-.672 1.085-.946 1.663q-.033.063-.066.133c-.09.192-.145.324-.145.54h-.136l-.047.163c-.117.375-.235.75-.364 1.121-.207.61-.273 1.223-.312 1.864-.02.152-.02.152-.086.222-.016.325-.012.649-.012.977v.144c-.03 1.157-.03 1.157.211 2.274.07.172.117.336.157.52l.046.187c.016.066.032.129.047.2a2 2 0 0 0 .047.198c.035.16.074.325.11.485h.136c.008.05.02.101.028.152.5 2.32 2.652 4.582 4.578 5.84 1.16.734 2.363 1.23 3.691 1.574.102.024.102.024.203.05 2.758.688 5.942.142 8.367-1.288a15.6 15.6 0 0 0 1.934-1.406q.072-.062.148-.125c.32-.274.594-.567.86-.887l.094-.106c.242-.277.468-.562.687-.859.031-.043.063-.09.098-.133.215-.297.39-.593.539-.93.066-.128.066-.128.164-.226.137-.14.195-.29.273-.469.082-.191.164-.37.274-.547.316-.539.422-1.242.582-1.843.015-.067.035-.133.05-.203q.03-.094.051-.192c.016-.059.032-.113.047-.172.094-.433.117-.851.117-1.289 0-.062.004-.12.004-.183v-.954c.004-.972.004-.972-.148-1.937-.024-.02-.043-.043-.067-.066q-.04-.2-.074-.407l-.035-.226q-.011-.088-.027-.176h-.133q.005-.093.016-.191c0-.36-.141-.672-.274-1.004-.039-.102-.039-.102-.082-.207-.562-1.368-1.402-2.586-2.422-3.653q-.07-.071-.14-.148c-.954-.992-2.133-1.762-3.372-2.348q-.204-.099-.402-.203c-3.887-1.95-8.867-.887-12.117 1.777m0 0" style="stroke:none;fill-rule:nonzero;fill:#f19c2f;fill-opacity:1"/><path d="M35.984 86.383h3.368q.003 2.198.007 4.394-.001 1.02.004 2.04v1.777q-.001.474.004.941v1.211c.004.567-.015 1.121-.074 1.684-.012.074-.012.074-.02.152-.07.59-.296 1.043-.593 1.55l-.059.165c-.094.207-.2.285-.383.414-.195.14-.3.227-.437.43-.211.046-.211.046-.403.07v.133c-2.242.894-4.808 1.133-7.09.187-.546-.242-1.03-.578-1.406-1.05a5 5 0 0 0-.132-.165 4.1 4.1 0 0 1-.586-1.164q-.024-.066-.047-.136c-.14-.485-.137-.946-.106-1.446 2.633-.5 2.633-.5 3.367-.472q.007.098.008.203c.024.484.07.898.266 1.347v.27c.445.242.836.289 1.332.289h.191q.2.006.399 0c.203 0 .406.004.61.004h.386q.088.002.183.004c.325-.004.543-.02.805-.23.094-.122.094-.122.152-.262q.031-.064.063-.133c.121-.32.133-.625.133-.965v-.148q.005-.24.004-.48v-.349q.005-.47.004-.941.004-.492.007-.984c.004-.618.004-1.239.008-1.86l.012-2.12zm0 0" style="stroke:none;fill-rule:nonzero;fill:#fbf1dc;fill-opacity:1"/><path d="M75.535 47.371q.41.363.809.738.064.059.133.118c.683.64 1.183 1.492 1.62 2.312l.094.176c.352.672.586 1.36.766 2.097q.018.09.043.176c.16.707.188 1.39.188 2.114q0 .127.003.261c0 .848-.129 1.637-.355 2.45a2 2 0 0 1-.04.152c-.214.8-.472 1.558-.901 2.277l-.137.067-.18.32c-.308.52-.691.976-1.098 1.418-.144.152-.144.152-.296.355-1.243 1.387-3.098 2.309-4.887 2.723l-.274.07c-1.535.418-3.34.235-4.851-.172-.05-.011-.102-.027-.152-.039-1.102-.304-2.094-.843-3.016-1.507a5 5 0 0 0-.172-.122 10.3 10.3 0 0 1-2.523-2.777c-.032-.047-.059-.094-.09-.14a7.8 7.8 0 0 1-.79-1.7c-.054-.191-.054-.191-.199-.316a4.7 4.7 0 0 1-.242-1.031c-.02-.243-.02-.243-.097-.434a2.4 2.4 0 0 1-.082-.75v-.953c-.004-.922.05-1.844.304-2.734q.02-.075.043-.157c.149-.531.34-1.047.547-1.558h.133l.047-.196c.09-.32.254-.597.426-.882h.132c.008-.036.012-.075.02-.11.184-.597.773-1.129 1.195-1.574q.051-.058.11-.121c.87-.922 2.039-1.652 3.191-2.168q.1-.045.2-.09c.55-.23 1.109-.352 1.695-.465.246-.039.246-.039.398-.12 2.941-.434 6.035.316 8.285 2.292m-9.5-.879q-.07.028-.144.051c-2.075.723-3.914 2.266-4.977 4.195a3.4 3.4 0 0 0-.203.676h-.133c-.152.34-.273.676-.375 1.035l-.047.153a13 13 0 0 0-.254 1.035c-.015.058-.015.058-.035.117-.047.23-.039.457-.039.691v1.461c-.023.23-.023.23.074.426.032.16.059.316.086.477.332 1.875 1.242 3.468 2.543 4.847l.157.168c1.59 1.668 3.894 2.485 6.167 2.547.825.008 1.739-.031 2.504-.355q.179-.042.356-.079c.555-.132 1.035-.394 1.531-.664l.215-.117c1.691-.941 2.906-2.379 3.828-4.062l.074-.133c.16-.297.215-.54.262-.875q.06-.154.125-.3c.336-.813.379-1.677.371-2.544q-.005-.24-.004-.48v-.453a3.5 3.5 0 0 0-.156-.942l-.082-.441c-.113-.535-.3-1.02-.524-1.512-.05-.117-.05-.117-.105-.238-1.023-2.18-3.004-3.817-5.242-4.633a9.2 9.2 0 0 0-3.086-.496h-.176c-.953.008-1.812.117-2.71.445m0 0" style="stroke:none;fill-rule:nonzero;fill:#f19c32;fill-opacity:1"/><path d="M95.145 90.766h3.437c.004 1.578.004 3.152.008 4.73v2.2c.004.636.004 1.277.004 1.913v1.016c.004.316.004.637.004.953v.352c.004 1.496-.282 2.41-1.305 3.53-.398.4-.398.4-.668.4v.132a5 5 0 0 1-1.355.528q-.094.02-.188.043c-.738.152-1.48.136-2.23.105a14 14 0 0 0-.168-.426l-.094-.238c-.074-.215-.074-.215-.074-.414h-.133c-.54-1.48-.54-1.48-.54-1.82.934-.024 1.868-.043 2.829-.067l.07-.27q.1-.1.2-.203c.14-.277.156-.53.156-.835v-.653c0-.12.004-.238.004-.36l.003-.972q-.001-.511.004-1.015.004-.967.008-1.926c.004-.73.004-1.465.008-2.196q.013-2.253.02-4.507m0 0" style="stroke:none;fill-rule:nonzero;fill:#f9efdb;fill-opacity:1"/><path d="M71.434 52.137c.945.793 1.328 1.644 1.472 2.847l.024.168c.02.348-.067.684-.14 1.02a2.9 2.9 0 0 1-.422 1.035h-.134l-.046.145c-.11.242-.243.402-.426.597h-.133v.137c-.125.102-.25.195-.383.289q-.058.041-.121.082c-.883.586-1.895.77-2.937.59a3.86 3.86 0 0 1-1.75-.895 2 2 0 0 0-.137-.12 3.87 3.87 0 0 1-1.074-1.766q-.022-.07-.043-.141c-.211-.848-.172-1.758.175-2.555h.137q.01-.073.02-.148c.148-.586.707-1.129 1.195-1.469 1.555-.887 3.262-.93 4.723.184m0 0" style="stroke:none;fill-rule:nonzero;fill:#201e1a;fill-opacity:1"/><path d="M68.746 47.617h.406c2.082-.004 3.895.946 5.38 2.36.976 1 1.538 2.18 1.847 3.527.031.129.07.254.105.379.383 1.523.012 3.426-.714 4.804a3 3 0 0 0-.098.137h-.137l-.055.153c-.46 1.086-1.543 2.12-2.574 2.68h-.133v.132c-1.828.824-3.8 1.352-5.796.742l-.133-.039a7.62 7.62 0 0 1-4.38-3.465q-.038-.065-.077-.129a6.4 6.4 0 0 1-.684-1.593c-.031-.16-.031-.16-.117-.23-.156-.575-.152-1.16-.148-1.75q.001-.234-.004-.466v-.297c0-.132 0-.132.004-.269.015-.258.07-.477.148-.723q.032-.17.05-.336c.087-.5.294-.953.489-1.418h.137l.023-.144c.281-1.168 1.68-2.34 2.656-2.95a8.3 8.3 0 0 1 2.387-.988c.469-.109.934-.117 1.418-.117m-1.5 1.235a1 1 0 0 1-.133.039c-1.582.472-2.808 1.511-3.761 2.847-.102.157-.102.157-.079.418h-.136q-.03.199-.067.403h-.136c-.618 1.39-.649 3.007-.2 4.449q.037.121.078.254a6.69 6.69 0 0 0 3.293 3.824 9 9 0 0 0 .676.289c1.352.516 3.11.531 4.442-.055.785-.363 1.593-.754 2.222-1.347v-.137h.137c.367-.348.68-.781.941-1.211v-.137h.137q.017-.072.04-.144.021-.094.05-.188l.047-.187.066-.153.2-.07c.066-.18.066-.18.105-.394.055-.25.09-.403.234-.614.313-1.562.172-3.175-.609-4.582l-.117-.222c-.324-.555-.707-1.012-1.16-1.465-.067-.063-.067-.063-.13-.13-.722-.683-1.628-1.124-2.566-1.417a7 7 0 0 0-.254-.086 5.86 5.86 0 0 0-3.32.016m0 0" style="stroke:none;fill-rule:nonzero;fill:#f29d34;fill-opacity:1"/><path d="M71.695 51.008c.262.187.504.39.743.61q.062.051.132.116c.735.68 1.309 1.797 1.356 2.805q.005.284.004.566.005.099.004.196c.004.855-.262 1.61-.621 2.379h-.133c-.028.074-.028.074-.051.144-.418.95-1.45 1.633-2.371 2.028-1.324.488-2.797.351-4.063-.223-.5-.262-.875-.606-1.265-1.004a5 5 0 0 1-.14-.145c-.61-.66-.903-1.363-1.142-2.214q-.033-.1-.066-.203a5 5 0 0 1-.012-.336v-.204c0-.105 0-.105.004-.21 0-.067-.004-.137-.004-.208.004-.605.035-1.136.25-1.707q.048-.122.094-.25l.07-.187h.137q.008-.07.016-.14c.234-.891 1.242-1.63 2-2.075 1.566-.824 3.578-.64 5.058.262m-5.691 1.594c-.383.43-.383.43-.508.968h-.137c-.402.918-.394 2.016-.066 2.965.469 1.086 1.223 1.899 2.328 2.36 1.102.394 2.23.218 3.266-.27.261-.164.511-.332.742-.54v-.136l.113-.039c.227-.14.36-.34.492-.566v-.137h.133c.215-.34.336-.645.422-1.035l.035-.152c.074-.356.13-.676.082-1.036q-.013-.128-.031-.261c-.156-1.125-.625-1.91-1.48-2.645-1.672-1.258-3.993-1.012-5.391.524m0 0" style="stroke:none;fill-rule:nonzero;fill:#f29d35;fill-opacity:1"/><path d="M88.938 93.645c.117 0 .117 0 .242-.004h.234c.106 0 .106 0 .211-.004.344.043.586.234.805.496.222.52.21 1.09.21 1.644v.61c0 .21.005.422.005.629v.402q0 .093.003.191c-.003.551-.097.914-.421 1.375l-.07.204c-.352.117-.727.078-1.098.078q-.122.005-.25.004h-.461c-.348-.028-.625-.118-.887-.352-.258-.523-.309-1.059-.305-1.633v-.226q-.001-.24.004-.473c0-.242 0-.48-.004-.723v-.676c.004-.44.063-.812.305-1.187.473-.383.898-.352 1.477-.355m0 0" style="stroke:none;fill-rule:nonzero;fill:#242320;fill-opacity:1"/><path d="M47.773 95.617v.133l.114.012c.234.086.34.199.496.394.07.403.082.805.086 1.211l.008.176c.003.559-.184.969-.567 1.375-.68.492-1.633.406-2.426.336-.504-.078-.832-.215-1.191-.594-.34-.465-.39-.832-.383-1.394q-.005-.089-.004-.184c0-.484.067-.816.403-1.184l.164-.148q.066-.067.136-.133c.973-.34 2.22-.496 3.164 0m0 0" style="stroke:none;fill-rule:nonzero;fill:#201f1c;fill-opacity:1"/><path d="M58.75 95.336h.16c.496.004.953.043 1.399.281v.133q.053.024.113.047c.32.183.523.41.625.762.023.234.023.464.023.695q-.001.094.004.187c0 .403-.054.707-.226 1.075-.168.152-.168.152-.34.265-.031.035-.067.07-.098.106-.45.43-.992.379-1.566.379-.07.004-.145.004-.215.004-.602 0-1.14-.024-1.621-.418-.27-.27-.457-.54-.488-.922v-.192c.003-.105.003-.105.003-.21q-.001-.105.004-.216v-.218q.001-.268.008-.535h.133l-.023-.145c.023-.191.023-.191.218-.367.106-.082.106-.082.211-.16.043-.067.09-.133.133-.203.066-.024.133-.043.203-.067q.043-.05.078-.101c.301-.25.883-.184 1.262-.18m0 0" style="stroke:none;fill-rule:nonzero;fill:#21211d;fill-opacity:1"/><path d="M47.688 89.445q.07.04.148.086c.398.25.398.25.453.434l.023.125c.067.035.067.035.137.066.153.457.14 1.063-.058 1.504-.274.403-.84.715-1.313.824-.289.051-.578.043-.871.043q-.089.005-.184.004c-.57 0-1.101-.039-1.55-.418v-.203l-.125-.055c-.145-.082-.145-.082-.278-.28v-.27h-.136c-.043-1.149-.043-1.149.398-1.664.8-.73 2.445-.72 3.355-.196m0 0" style="stroke:none;fill-rule:nonzero;fill:#252420;fill-opacity:1"/><path d="M59.43 89.148v.133c.101-.008.101-.008.199-.02.43-.003.836.29 1.152.56.27.456.254 1.038.2 1.55-.145.48-.555.754-.973.984-.399.196-.75.204-1.188.192q-.1.001-.207-.004c-.586-.008-1.148-.04-1.605-.43v-.203c-.043-.02-.086-.035-.13-.055-.25-.14-.331-.347-.41-.62-.066-.56-.042-1.005.29-1.47.656-.777 1.758-.652 2.672-.617m0 0" style="stroke:none;fill-rule:nonzero;fill:#22221e;fill-opacity:1"/><path d="M98.582 87.46v2.228h-3.371V88l.934-.164c.101-.02.207-.035.312-.055 1.785-.32 1.785-.32 2.125-.32m0 0" style="stroke:none;fill-rule:nonzero;fill:#f9efda;fill-opacity:1"/><path d="M106.531 97.637c.04.957.04.957-.203 1.281-.43.398-.867.355-1.422.355q-.146.005-.293.004c-.14.004-.281.004-.422.008h-.254c-.277-.035-.421-.125-.64-.3-.07-.165-.07-.165-.067-.337.094-.203.16-.312.36-.425a7 7 0 0 1 1.105-.278c.34-.058.672-.14 1.004-.218.285-.067.54-.102.832-.09m0 0" style="stroke:none;fill-rule:nonzero;fill:#262521;fill-opacity:1"/><path d="M36.238 86.242h2.977c.137.008.137.008.203.074q.012.23.012.457v4.61c0 .644.004 1.289.004 1.933v2.649q.006.47 0 .933-.001.175.004.344c0 .57-.004 1.121-.153 1.676-.074-.23-.062-.414-.039-.652.047-.547.05-1.09.05-1.637 0-.113.005-.227.005-.34 0-.3.004-.602.004-.906 0-.317.004-.633.004-.95l.011-1.796c.004-.68.004-1.364.008-2.047l.024-4.207H35.98c.004.355.004.707.004 1.074v3.496c0 .707.004 1.414.004 2.121v3.75q-.001.172.004.336v.727a2.7 2.7 0 0 1-.078.558h-.066c0-1.578-.004-3.16-.004-4.738v-2.203c0-.637-.004-1.277-.004-1.918v-2.941c0-.38.023-.403.398-.403m0 0" style="stroke:none;fill-rule:nonzero;fill:#69655c;fill-opacity:1"/><path d="M136.516 57.746h.136c.153.3.153.582.153.91v2.348c-.004.418-.004.84-.004 1.258v5.317q-.002 2.548-.004 5.097.001 2.478-.004 4.957v4.953c0 3.2-.004 6.394-.004 9.594h-.07l-.024-10.668q-.005-.633-.004-1.266v-.258l-.011-4.05c-.004-1.391-.008-2.786-.008-4.176-.004-.782-.004-1.559-.008-2.34-.008-3.777-.016-7.559-.012-11.336h-.136zm0 0" style="stroke:none;fill-rule:nonzero;fill:#000;fill-opacity:1"/><path d="M98.379 87.395h.27v2.425q-.747.005-1.493.004-.257-.001-.508.004h-1.363c-.14-.008-.14-.008-.207-.074-.02-.29-.012-.582-.012-.871-.004-.125-.004-.125-.004-.25v-.458c.016-.175.016-.175.149-.308a6.3 6.3 0 0 1 1.55-.133v.067q-.292.048-.585.101c-.055.008-.11.02-.168.028-.078.015-.078.015-.16.027-.051.008-.098.02-.149.027-.152.016-.152.016-.488.016v1.688h3.371V87.46q-.099-.03-.203-.066m0 0" style="stroke:none;fill-rule:nonzero;fill:#5d5a52;fill-opacity:1"/><path d="M95.078 90.832h.067l.011 4.695q-.001 1.094.004 2.184c0 .633.004 1.266.004 1.898v1.008q.005.475.004.95v1.09c-.023.253-.098.421-.227.64-.097-.195-.02-.324.036-.527.05-.22.05-.434.05-.657 0-.074 0-.074.004-.148v-.485q-.001-.177.004-.347v-.945c.004-.329.004-.657.008-.989q.001-.93.008-1.867c0-.707.004-1.418.008-2.125.007-1.457.011-2.918.02-4.375m0 0" style="stroke:none;fill-rule:nonzero;fill:#34332e;fill-opacity:1"/><path d="M1.55 74.727h.134c0 .07.004.14.004.21q.006.972.019 1.95l.012 1 .011.965v.37c.004.173.004.344.008.516v.157c-.015.23-.015.23.082.425v.336q-.135-.067-.27-.133zm0 0" style="stroke:none;fill-rule:nonzero;fill:#000;fill-opacity:1"/><path d="M21.078 18.254h.16q.199.001.39.008.037.1.067.199l-.133.203c-.175.02-.175.02-.378.012-.102 0-.102 0-.204-.004l-.16-.008q-.03.135-.066.27h-.606v-.54c.313-.156.59-.148.93-.14m0 0" style="stroke:none;fill-rule:nonzero;fill:#2d2b2a;fill-opacity:1"/><path d="M106.734 90.227h.067c.02.378.02.378-.133.605q.263.033.539.066.03-.296.066-.605c.2-.063.301-.086.493.004.113.133.113.133.136.34-.023.195-.023.195-.09.261a5 5 0 0 1-.335 0v.204l.12.023.165.035q.08.018.16.035c.156.04.289.098.43.176-.133.067-.133.067-.34.008l-.258-.094a13 13 0 0 0-1.356-.387c.043-.09.09-.175.133-.27h.137q-.005-.08-.004-.163c.004-.172.004-.172.07-.238m0 0" style="stroke:none;fill-rule:nonzero;fill:#403f3b;fill-opacity:1"/><path d="M104.262 93.57h.437q.23.005.457.004c.742 0 .742 0 .973.156a4 4 0 0 0-.203-.007q-.38-.013-.754-.02-.166-.001-.324-.008c-.61-.047-.61-.047-1.168.13-.11.12-.18.23-.246.378a4 4 0 0 0-.098.176 2 2 0 0 0-.063.156q-.058.134-.109.274c-.64-.04-1.27-.133-1.898-.239l-.504-.082c-.106-.02-.211-.035-.317-.054l-.152-.024c-.348-.058-.348-.058-.5-.207.71.078 1.414.184 2.117.309.418.07.832.125 1.254.16l-.023-.211c.03-.371.214-.523.476-.773.219-.133.39-.118.645-.118m0 0" style="stroke:none;fill-rule:nonzero;fill:#868176;fill-opacity:1"/><path d="M40.633 95.547h.066c0 .074-.004.148-.004.223-.004.28-.004.558-.008.835q0 .179-.003.356c-.016 1.047.011 2.082.488 3.035l-.07.137c-.547-.918-.63-1.856-.63-2.895v-.136c0-.532.028-1.036.16-1.555m0 0" style="stroke:none;fill-rule:nonzero;fill:#a6a092;fill-opacity:1"/><path d="M109.766 92.852c.097.07.097.07.203.203.062.37.078.734.078 1.11v1.851q.002.498.004.996v1.14c.008 1.371.008 1.371-.149 1.778-.066.03-.066.03-.136.066q.016-.064.03-.133c.126-.648.126-1.285.122-1.945v-3.199c.004-.168 0-.336 0-.5v-.149c0-.336-.066-.62-.152-.945zm0 0" style="stroke:none;fill-rule:nonzero;fill:#969184;fill-opacity:1"/><path d="M136.719 98.984h.07v2.41c0 .372.004.743.004 1.118v2.066q.005.083.004.172c0 .266-.012.512-.078.773h-.203v-.273h.136c.024-2.066.043-4.133.067-6.266m0 0" style="stroke:none;fill-rule:nonzero;fill:#000;fill-opacity:1"/><path d="M46.527 86.309q.166-.001.328.004l.786.003v.137c.09.02.175.043.27.067h-.259c-.32-.004-.636-.004-.957-.004h-.41c-.2-.004-.394-.004-.594-.004h-.183c-.332 0-.64.02-.969.074-.18.008-.355.004-.539 0 .645-.426 1.777-.285 2.527-.277m0 0" style="stroke:none;fill-rule:nonzero;fill:#b0a99a;fill-opacity:1"/><path d="M48.246 101.883v.066a11.3 11.3 0 0 1-1.957.149h-.414c-.387 0-.754-.008-1.133-.082v-.067c.086 0 .176-.004.266-.004.32-.007.644-.011.965-.02q.208-.006.418-.007.304-.005.601-.016h.192c.058-.004.113-.004.175-.004.075-.003.075-.003.153-.003.531-.047.531-.047.734-.012m0 0" style="stroke:none;fill-rule:nonzero;fill:#b7b0a0;fill-opacity:1"/><path d="M57.074 98.852c.156.02.309.043.473.066v.137h.86q.146.005.292.004c.739.004.739.004 1.473-.075-.164.2-.285.23-.54.27-.26.016-.527.012-.788.012-.07.004-.145.004-.215.004-.55 0-1.098-.012-1.555-.352zm0 0" style="stroke:none;fill-rule:nonzero;fill:#59564e;fill-opacity:1"/><path d="M18.059 67.293q.098.012.203.023c.152.23.152.332.133.606-.067.066-.067.066-.262.078-.211-.012-.211-.012-.41-.145-.024-.203-.024-.203 0-.406.132-.133.132-.133.336-.156m0 0" style="stroke:none;fill-rule:nonzero;fill:#2a2826;fill-opacity:1"/><path d="M60.781 101.883v.066c-.699.11-1.386.149-2.093.149h-.239a8 8 0 0 1-1.176-.082v-.067c.09 0 .176-.004.266-.004.324-.007.645-.011.969-.02q.206-.006.418-.007.298-.005.601-.016h.188q.087-.005.176-.004c.078-.003.078-.003.156-.003.527-.047.527-.047.734-.012m0 0" style="stroke:none;fill-rule:nonzero;fill:#bcb4a4;fill-opacity:1"/><path d="M57.367 95.563q.054.024.11.054-.059.025-.122.051c-.16.09-.242.184-.359.328-.101.129-.101.129-.191.227h-.137v.336h-.133v1.418l-.137-.07c-.078-1.493-.078-1.493.29-1.915l.117-.105c.035-.04.07-.075.105-.114.153-.144.242-.23.457-.21m0 0" style="stroke:none;fill-rule:nonzero;fill:#b1aa9b;fill-opacity:1"/><path d="M44.54 98.852q.232.03.472.066v.137h.863q.146.005.293.004c.738.004.738.004 1.473-.075-.305.204-.54.29-.907.29h-.64c-.547 0-1.098-.02-1.555-.356zm0 0" style="stroke:none;fill-rule:nonzero;fill:#514f47;fill-opacity:1"/><path d="M51.547 88.813c.246.18.27.421.316.707q.011.07.028.148c.109.71.132 1.469-.008 2.176h-.067q-.004-.105-.007-.211-.022-.386-.043-.778c-.004-.109-.012-.222-.016-.332l-.023-.484c-.004-.047-.004-.098-.008-.148a2.8 2.8 0 0 0-.172-.813zm0 0" style="stroke:none;fill-rule:nonzero;fill:#aaa395;fill-opacity:1"/><path d="M21.215 18.324h.2c.073.004.073.004.148.004v.27h-.875v.203h-.407c.04-.196.059-.262.203-.406a2.6 2.6 0 0 1 .73-.07m0 0" style="stroke:none;fill-rule:nonzero;fill:#3c3a38;fill-opacity:1"/><path d="M44.61 95.617q.062.03.132.067c-.074.09-.152.18-.226.27l-.13.151-.116.118h-.133c-.024.62-.047 1.246-.067 1.886-.199-.195-.156-.359-.16-.625 0-.066.004-.129.004-.195q-.005-.093-.004-.191c0-.493.059-.825.399-1.2l.164-.148q.066-.067.136-.133m0 0" style="stroke:none;fill-rule:nonzero;fill:#59564e;fill-opacity:1"/><path d="M99.965 60.844q.117-.001.234.004c.098.199.07.386.067.605h-.606c-.008-.414-.008-.414 0-.539.067-.066.067-.066.305-.07m0 0" style="stroke:none;fill-rule:nonzero;fill:#2f2d2b;fill-opacity:1"/><path d="M74.457 69.605a1.8 1.8 0 0 1-.555.254c-.07.02-.136.04-.207.063q-.109.032-.218.062c-.07.024-.145.043-.22.067-.534.16-.534.16-.687.16l.047.203c.094.453.184.883.156 1.348h-.066l-.14-.653-.04-.187c-.011-.059-.027-.117-.039-.18l-.035-.164c-.02-.183.008-.324.05-.5.063-.02.063-.02.126-.035l.57-.164q.1-.025.2-.055c.062-.02.124-.035.19-.054.087-.028.087-.028.177-.051.246-.07.433-.121.691-.114m0 0" style="stroke:none;fill-rule:nonzero;fill:#b95e27;fill-opacity:1"/><path d="M57.344 92.246q.069.018.144.035c.2.035.383.043.582.043h.695c.45 0 .891-.02 1.34-.078-.292.195-.472.29-.832.29h-.64c-.43 0-.813-.032-1.223-.153zm0 0" style="stroke:none;fill-rule:nonzero;fill:#5e5a52;fill-opacity:1"/><path d="M53.098 95.953h.066v2.828c-.34-.336-.215-1.074-.215-1.52v-.484q-.005-.104-.004-.215a2.2 2.2 0 0 1 .153-.609m0 0" style="stroke:none;fill-rule:nonzero;fill:#5b5850;fill-opacity:1"/><path d="M55.93 101.68q.674.095 1.343.203v.133l2.36.07v.066c-.278.004-.551.004-.828.008q-.141-.001-.282.004c-.527.004-1.007-.012-1.515-.148q-.16-.017-.313-.028c-.289-.027-.508-.113-.765-.238zm0 0" style="stroke:none;fill-rule:nonzero;fill:#5d5a52;fill-opacity:1"/><path d="M57.41 115.023v.672c-.195.012-.195.012-.402 0-.149-.215-.149-.289-.137-.539.207-.117.285-.133.54-.133m0 0" style="stroke:none;fill-rule:nonzero;fill:#2d2c29;fill-opacity:1"/><path d="M126.746 60.375v.203h.137l.133.133c-.024.144-.024.144-.067.27-.414.007-.414.007-.539 0-.066-.067-.066-.067-.07-.305q-.001-.117.004-.235c.133-.066.133-.066.402-.066m0 0" style="stroke:none;fill-rule:nonzero;fill:#2c2a28;fill-opacity:1"/><path d="M60.848 45.215c.043.02.09.043.132.066-.554.555-1.109 1.114-1.683 1.684a2 2 0 0 1-.133-.067c1.11-1.226 1.11-1.226 1.684-1.683m0 0" style="stroke:none;fill-rule:nonzero;fill:#d49c25;fill-opacity:1"/><path d="M106.465 119.066h.066l-.023.293q-.008.082-.016.168c-.027.145-.027.145-.164.278-.02.156-.023.312-.027.468-.04.141-.04.141-.176.227l-.133.047v.406c-.043.02-.09.043-.133.067v-.676c.09-.02.176-.043.27-.067q-.005-.128-.004-.261c-.004-.258-.004-.258.07-.41h.203q-.004-.099-.003-.196c.003-.21.003-.21.07-.344m0 0" style="stroke:none;fill-rule:nonzero;fill:#2b2a28;fill-opacity:1"/><path d="M102.152 11.05q.237-.005.473 0c.066.067.066.067.074.305-.008.235-.008.235-.074.301q-.204.006-.406 0-.03-.297-.067-.605m0 0" style="stroke:none;fill-rule:nonzero;fill:#2c2b28;fill-opacity:1"/><path d="M59.566 44.27c0 .203 0 .203-.136.363-.094.09-.094.09-.188.183a2 2 0 0 1-.101.098c-.102.106-.211.211-.317.313q-.104.105-.215.21-.258.258-.523.516-.069-.03-.137-.066.228-.246.461-.492l.13-.141q.063-.066.128-.137l.113-.125c.04-.039.074-.074.11-.117q.057-.053.109-.113c.094-.086.094-.086.23-.086v-.137q.166-.141.336-.27m0 0" style="stroke:none;fill-rule:nonzero;fill:#43361a;fill-opacity:1"/><path d="M113.441 41.234c.079 0 .157.004.235.004q.03.234.066.473c-.222.074-.379.055-.605 0a7 7 0 0 1 0-.406c.066-.067.066-.067.304-.07m0 0" style="stroke:none;fill-rule:nonzero;fill:#2d2c29;fill-opacity:1"/><path d="M13.273 78.906q.2.067.407.133.03.168.066.336c-.21.129-.363.148-.605.137-.008-.227-.008-.227 0-.473zm0 0" style="stroke:none;fill-rule:nonzero;fill:#2d2b29;fill-opacity:1"/><path d="M7.82 76.813c.098 0 .098 0 .2.003.09.184.07.336.066.54h-.54a10 10 0 0 1 0-.473c.067-.067.067-.067.274-.07m0 0" style="stroke:none;fill-rule:nonzero;fill:#32302e;fill-opacity:1"/><path d="M30.227 59.293c.074 0 .152.004.23.004.012.226.012.226 0 .473-.203.132-.203.132-.348.109-.043-.016-.082-.027-.125-.043q-.036-.234-.066-.473c.066-.066.066-.066.309-.07m0 0" style="stroke:none;fill-rule:nonzero;fill:#2f2f2c;fill-opacity:1"/><path d="M34.164 136.18q.199.069.402.136v-.136l.235.03c.3.04.605.071.91.106v.133h-1.547zm0 0" style="stroke:none;fill-rule:nonzero;fill:#18120f;fill-opacity:1"/><path d="M95.887 106.398c-.985.434-1.98.372-3.035.336v-.066c.066 0 .066 0 .132-.004.778-.012 1.532-.031 2.282-.246.23-.066.394-.11.62-.02m0 0" style="stroke:none;fill-rule:nonzero;fill:#646158;fill-opacity:1"/><path d="M95.078 99.793h.067l.02 2.383.003.199c0 .36-.027.61-.227.922-.093-.192-.02-.317.036-.516.058-.273.058-.55.062-.828q-.001-.093.004-.187c.004-.2.004-.395.008-.59.004-.133.008-.27.008-.403.007-.328.011-.652.02-.98m0 0" style="stroke:none;fill-rule:nonzero;fill:#35332e;fill-opacity:1"/><path d="M104.309 88.945h.539v.473c-.157.043-.157.043-.336.066-.067-.043-.133-.09-.203-.132-.012-.211-.012-.211 0-.407m0 0" style="stroke:none;fill-rule:nonzero;fill:#2c2c28;fill-opacity:1"/><path d="M85.172 91.773c.14.032.14.032.27.07-.06.055-.114.11-.172.169l-.223.222a2 2 0 0 0-.113.114c-.055.05-.055.05-.11.105l-.101.102c-.106.11-.106.11-.223.297h-.137c.102-.364.356-.606.606-.875q.05-.059.101-.122c.032-.027.067-.05.102-.082m0 0" style="stroke:none;fill-rule:nonzero;fill:#c5bdad;fill-opacity:1"/><path d="M83.219 21.496c.191-.008.191-.008.402 0 .047.043.09.09.137.133-.188.465-.188.465-.336.539-.102-.07-.102-.07-.203-.2-.012-.25-.012-.25 0-.472m0 0" style="stroke:none;fill-rule:nonzero;fill:#343230;fill-opacity:1"/><path d="M128.031 104.363c.2.012.2.012.266.082.008.168.008.168 0 .336-.067.067-.067.067-.227.09l-.18-.023c-.12-.168-.12-.168-.199-.336.133-.137.133-.137.34-.149m0 0" style="stroke:none;fill-rule:nonzero;fill:#2c2b28;fill-opacity:1"/><path d="M101.613 43.598h.27q.033.297.066.605c-.066.024-.133.043-.199.067-.07-.043-.137-.09-.203-.133-.02-.242-.02-.242 0-.473q.03-.033.066-.066m0 0" style="stroke:none;fill-rule:nonzero;fill:#2e2c2a;fill-opacity:1"/><path d="M134.023 61.52h.407q.03.233.066.472h-.539q.033-.233.066-.472m0 0" style="stroke:none;fill-rule:nonzero;fill:#373533;fill-opacity:1"/><path d="M77.492 58.422c0 .238-.07.367-.172.586-.047.097-.047.097-.093.203q-.034.076-.075.152a2 2 0 0 0-.066-.133q.033-.098.066-.203h-.132v-.472c.156-.043.308-.09.472-.133m0 0" style="stroke:none;fill-rule:nonzero;fill:#524130;fill-opacity:1"/><path d="M125.129 38.14c.004.133.004.27 0 .403-.067.066-.067.066-.207.074q-.082.001-.168-.004h-.168c-.043 0-.086-.004-.129-.004v-.402q.094.019.188.043c.253.027.27-.11.484-.11m0 0" style="stroke:none;fill-rule:nonzero;fill:#2e2c2b;fill-opacity:1"/><path d="M42.113 87.262q.069.03.137.066-.175.199-.352.39a3 3 0 0 1-.097.114 2.1 2.1 0 0 1-.63.508c.2-.442.556-.797.942-1.078m0 0" style="stroke:none;fill-rule:nonzero;fill:#c1b9a9;fill-opacity:1"/><path d="M135.777 52.02q.166-.006.336 0c.067.066.067.066.07.273q0 .1-.003.2c-.125.07-.125.07-.27.132a2 2 0 0 1-.133-.066zm0 0" style="stroke:none;fill-rule:nonzero;fill:#363432;fill-opacity:1"/><path d="M62.734 101.14v.137c-.484.297-1.254.692-1.84.575l-.113-.036c.203-.117.371-.156.606-.187.39-.063.703-.215 1.047-.402.164-.086.164-.086.3-.086M50.2 101.14v.137c-.485.297-1.25.692-1.837.575l-.117-.036c.203-.117.375-.156.606-.187.39-.063.703-.215 1.05-.402.164-.086.164-.086.297-.086m0 0" style="stroke:none;fill-rule:nonzero;fill:#ada798;fill-opacity:1"/><path d="M54.648 87.262c.043.02.09.043.133.066q-.17.199-.347.39a3 3 0 0 0-.098.114 2.2 2.2 0 0 1-.633.508c.211-.453.559-.774.945-1.078m0 0" style="stroke:none;fill-rule:nonzero;fill:#c1baa9;fill-opacity:1"/><path d="M107.512 89.953q.117-.001.234.004v.336h-.406c-.02.2-.043.398-.067.605h-.066q-.005-.217-.004-.433-.005-.118-.004-.242c.012-.29.016-.266.313-.27m-.442.945.137.07Zm0 0" style="stroke:none;fill-rule:nonzero;fill:#252421;fill-opacity:1"/><path d="M107.477 52.29q.165-.008.335 0c.067.065.067.065.086.265-.007.066-.011.136-.02.207-.066.043-.132.09-.198.133-.07-.043-.137-.09-.203-.133-.012-.246-.012-.246 0-.473m0 0" style="stroke:none;fill-rule:nonzero;fill:#32312e;fill-opacity:1"/><path d="M90.563 16.645h.472v.199h.133a3 3 0 0 1-.066.203 10 10 0 0 1-.473 0c-.067-.067-.067-.067-.07-.238 0-.055.004-.11.004-.164m0 0" style="stroke:none;fill-rule:nonzero;fill:#353331;fill-opacity:1"/><path d="M85.781 104.102c.098.003.098.003.2.003v.473q-.234-.033-.473-.066v-.34c.07-.067.07-.067.273-.07m0 0" style="stroke:none;fill-rule:nonzero;fill:#373633;fill-opacity:1"/><path d="M36.32 28.438h.133v.605l-.27.133c-.097-.2-.07-.387-.066-.606h.203zm0 0" style="stroke:none;fill-rule:nonzero;fill:#2c2a28;fill-opacity:1"/><path d="M33.219 31.266h.406c.07.21.063.27 0 .472h-.406zm0 0" style="stroke:none;fill-rule:nonzero;fill:#3e3c3a;fill-opacity:1"/><path d="M121.223 71.629q.263.03.539.066c-.18.328-.18.328-.407.407-.144-.098-.144-.098-.27-.204.048-.09.09-.18.138-.27m0 0" style="stroke:none;fill-rule:nonzero;fill:#343330;fill-opacity:1"/><path d="M112.73 39.418h.407v.473h-.407zm0 0" style="stroke:none;fill-rule:nonzero;fill:#32302e;fill-opacity:1"/><path d="M33.152 31.2h.606c.008.464.008.464 0 .605-.067.066-.067.066-.274.07q-.098.001-.195-.004v-.133h.336v-.406c-.2-.031-.2-.031-.406-.066q.035.196.07.406c-.07.031-.07.031-.137.066zm0 0" style="stroke:none;fill-rule:nonzero;fill:#2d2b2a;fill-opacity:1"/><path d="M57.207 95.547c.152.02.152.02.27.07q-.059.025-.122.051c-.16.09-.242.184-.359.328-.101.129-.101.129-.191.227h-.137v.336h-.133c.024-.364.133-.5.403-.739.07-.082.07-.082.14-.16q.064-.056.129-.113m0 0" style="stroke:none;fill-rule:nonzero;fill:#69665c;fill-opacity:1"/><path d="M85.75 103.969q.112-.001.23.004c.11.215.07.433.067.672-.453.007-.453.007-.606-.067-.007-.414-.007-.414 0-.539.067-.066.067-.066.309-.07m-.242.203v.34q.233.03.472.066v-.473c-.257-.027-.257-.027-.472.067m0 0" style="stroke:none;fill-rule:nonzero;fill:#282725;fill-opacity:1"/><path d="M100.871 117.719h.34q.03.099.066.203.067.03.133.066c-.133.133-.133.133-.312.14q-.078 0-.16-.007v-.133h-.133zm0 0" style="stroke:none;fill-rule:nonzero;fill:#2b2b28;fill-opacity:1"/><path d="M55.05 58.758c.2.035.2.035.407.066v.473h-.203c-.024.043-.043.09-.066.133q-.069-.328-.137-.672m0 0" style="stroke:none;fill-rule:nonzero;fill:#42392f;fill-opacity:1"/><path d="M66.71 51.953q.065.03.134.067c-.313.312-.621.62-.946.94q-.063-.03-.132-.065.14-.158.28-.32c.079-.09.079-.09.161-.18.156-.165.32-.305.504-.442m0 0" style="stroke:none;fill-rule:nonzero;fill:#47371e;fill-opacity:1"/><path d="M17.855 67.45h.407v.405h-.407zm0 0" style="stroke:none;fill-rule:nonzero;fill:#3a3836;fill-opacity:1"/><path d="M99.793 60.98h.406v.407h-.406zm0 0" style="stroke:none;fill-rule:nonzero;fill:#413f3d;fill-opacity:1"/><path d="M106.195 118.66h.067c.011.227.011.227 0 .473-.067.043-.133.09-.2.133-.035.132-.035.132-.039.277l-.03.262-.134.07c-.011-.309 0-.531.133-.809h.137q.03-.2.066-.406m0 0" style="stroke:none;fill-rule:nonzero;fill:#2d2c2a;fill-opacity:1"/><path d="M44.61 95.617q.062.03.132.067c-.074.09-.152.18-.226.27l-.13.151-.116.118h-.133v.336H44c.027-.364.137-.504.406-.739.04-.043.078-.082.121-.125.028-.027.055-.05.082-.078m0 0" style="stroke:none;fill-rule:nonzero;fill:#636056;fill-opacity:1"/><path d="M67.047 87.262q.067.03.133.066c-.094.11-.192.219-.285.328l-.16.184a1.15 1.15 0 0 1-.43.297c.105-.246.254-.403.445-.59q.082-.083.168-.164zm0 0" style="stroke:none;fill-rule:nonzero;fill:#c7bfae;fill-opacity:1"/><path d="m100.938 96.086.136.07a17 17 0 0 1-.25.29q-.066.081-.136.163a2 2 0 0 1-.489.356c.102-.25.254-.406.446-.59q.08-.083.168-.164zm0 0" style="stroke:none;fill-rule:nonzero;fill:#b9b1a2;fill-opacity:1"/><path d="M100.938 91.64q.068.034.136.067-.143.165-.285.328l-.164.188c-.14.14-.242.218-.426.293.102-.246.254-.403.446-.59q.08-.078.168-.16zm0 0" style="stroke:none;fill-rule:nonzero;fill:#b8b1a1;fill-opacity:1"/><path d="M122.164 130.117h.27v.27c-.043.008-.086.011-.13.02l-.14.046q-.03.1-.066.203h-.27q.067-.135.133-.27h.137zm0 0" style="stroke:none;fill-rule:nonzero;fill:#080605;fill-opacity:1"/><path d="M106.465 119.066h.066c-.004.098-.011.192-.02.29l-.011.164c-.043.18-.105.23-.238.355-.047.207-.047.207-.067.402h-.066c-.008-.52-.008-.52.066-.672h.203c-.003-.066-.003-.128-.003-.195.003-.21.003-.21.07-.344m0 0" style="stroke:none;fill-rule:nonzero;fill:#31302e;fill-opacity:1"/><path d="M136.45 106.328h.066q.004.316.007.633v.515c-.007.133-.007.133-.074.27h-.199q.03-.135.066-.27h.133zm0 0" style="stroke:none;fill-rule:nonzero;fill:#040000;fill-opacity:1"/><path d="M126.41 60.441h.27q.033.2.066.407c-.129.035-.129.035-.27.066-.066-.066-.066-.066-.07-.273q.002-.1.004-.2m0 0" style="stroke:none;fill-rule:nonzero;fill:#3a3836;fill-opacity:1"/><path d="M103.5 93.797c.145.023.145.023.27.066l-.16.149c-.169.18-.239.297-.313.527a.56.56 0 0 1-.012-.45c.082-.16.082-.16.215-.292m0 0" style="stroke:none;fill-rule:nonzero;fill:#524f47;fill-opacity:1"/><path d="m1.82 32.477-.07.609q-.1.03-.2.066v-.605c.134-.07.134-.07.27-.07m0 0" style="stroke:none;fill-rule:nonzero;fill:#040000;fill-opacity:1"/><path d="M136.18 108.285h.07q-.001.194.004.387v.219a1.6 1.6 0 0 1-.074.472h-.203l.07-.34h.133zm0 0" style="stroke:none;fill-rule:nonzero;fill:#030000;fill-opacity:1"/><path d="M75.805 116.371c.203.067.203.067.27.2q.004.205 0 .406c-.145-.145-.165-.211-.2-.407l-.203.203v-.335c.043-.024.09-.043.133-.067m0 0" style="stroke:none;fill-rule:nonzero;fill:#2a2826;fill-opacity:1"/><path d="m105.656 119.875.133.133c0 .16 0 .16-.023.347l-.024.184q-.007.07-.02.145h-.132q-.005-.186-.004-.368-.005-.1-.004-.207c.008-.168.008-.168.074-.234m0 0" style="stroke:none;fill-rule:nonzero;fill:#2f2d2b;fill-opacity:1"/><path d="M57.074 115.156h.27v.406h-.27zm0 0" style="stroke:none;fill-rule:nonzero;fill:#3c3a38;fill-opacity:1"/><path d="M100.133 92.516c.086.18.043.28 0 .472h-.137v.403h-.137c.032-.348.063-.582.274-.875m0 0" style="stroke:none;fill-rule:nonzero;fill:#aca596;fill-opacity:1"/><path d="M58.016 38.004q-.059.026-.118.05a1.4 1.4 0 0 0-.421.352c-.051.18-.051.18-.067.34h-.066c-.024-.219-.024-.219 0-.473.21-.234.36-.304.672-.27m0 0" style="stroke:none;fill-rule:nonzero;fill:#c39b15;fill-opacity:1"/><path d="M13.41 9.57c.09.02.176.043.27.067h-.137q-.03.1-.066.199c-.024-.086-.043-.176-.067-.266m-.27.266h.27q-.036.134-.066.273h-.203zm0 0" style="stroke:none;fill-rule:nonzero;fill:#100a07;fill-opacity:1"/><path d="M15.566 7.883h.067c.012.16.012.16 0 .336-.219.148-.29.148-.54.136V8.22h.27c.024-.067.043-.133.067-.2h.136zm0 0" style="stroke:none;fill-rule:nonzero;fill:#060505;fill-opacity:1"/><path d="M60.781 101.883v.066a4.4 4.4 0 0 1-1.011.067v-.067c.375-.11.625-.144 1.011-.066m0 0" style="stroke:none;fill-rule:nonzero;fill:#bbb4a4;fill-opacity:1"/><path d="M48.246 101.883v.066c-.34.07-.664.074-1.012.067v-.067c.375-.11.63-.144 1.012-.066m0 0" style="stroke:none;fill-rule:nonzero;fill:#bcb5a5;fill-opacity:1"/><path d="M105.453 97.773c-.285.149-.578.293-.906.243q-.048-.02-.102-.04c.344-.214.614-.226 1.008-.203m0 0" style="stroke:none;fill-rule:nonzero;fill:#9e988b;fill-opacity:1"/><path d="M109.766 92.852c.164.128.199.191.238.402l.012.219.011.222q.007.082.008.168a1.3 1.3 0 0 1-.21-.465c-.013-.046-.02-.093-.032-.136-.027-.137-.027-.137-.027-.41m0 0" style="stroke:none;fill-rule:nonzero;fill:#7e796f;fill-opacity:1"/><path d="M75.336 86.992q.064.03.133.067c-.375.254-.63.304-1.078.27v-.067l.246-.024c.265-.031.46-.12.699-.246m0 0" style="stroke:none;fill-rule:nonzero;fill:#b6afa0;fill-opacity:1"/><path d="M47.305 45.617q-.062.031-.125.055c-.149.074-.149.074-.258.191-.027.032-.059.059-.09.09h-.137v.406h-.066c-.02-.218-.02-.218 0-.472.21-.235.36-.305.676-.27m0 0" style="stroke:none;fill-rule:nonzero;fill:#b48621;fill-opacity:1"/><path d="M24.46 36.59h.27q.03.165.067.336h-.336zm0 0" style="stroke:none;fill-rule:nonzero;fill:#3a3937;fill-opacity:1"/><path d="M60.172 32.883v.066c-.113.031-.113.031-.227.059-.246.054-.246.054-.379.21-.043.177-.043.177-.066.337h-.07c-.032-.43-.032-.43.105-.602.219-.094.403-.082.637-.07m0 0" style="stroke:none;fill-rule:nonzero;fill:#d4af0a;fill-opacity:1"/><path d="M130.723 121.559h.203q-.037.135-.067.27h-.136c-.024.089-.043.179-.067.269h-.203c.024-.067.043-.133.067-.203h.136q.03-.166.067-.336m0 0" style="stroke:none;fill-rule:nonzero;fill:#050000;fill-opacity:1"/><path d="M95.078 102.29h.067c.023.39.011.66-.204 1.007-.101-.207-.023-.36.032-.582q.03-.118.058-.242zm0 0" style="stroke:none;fill-rule:nonzero;fill:#5e5b53;fill-opacity:1"/><path d="M27.02 2.36h.34v.132h-.137v.203h-.27c.024-.11.043-.222.067-.336m0 0" style="stroke:none;fill-rule:nonzero;fill:#000;fill-opacity:1"/><path d="M118.188 132.543h.34v.2h-.137v.136h-.204zm0 0" style="stroke:none;fill-rule:nonzero;fill:#050000;fill-opacity:1"/><path d="M109.7 118.527h.605c-.043.09-.09.176-.133.27v-.137h-.54q.031-.067.067-.133m0 0" style="stroke:none;fill-rule:nonzero;fill:#2a2826;fill-opacity:1"/><path d="M135.035 112.73h.137v.54q-.134.035-.274.066v-.2h.137zm0 0" style="stroke:none;fill-rule:nonzero;fill:#060101;fill-opacity:1"/><path d="M51.547 88.813c.148.117.2.18.238.367l.031.507c-.191-.292-.27-.527-.27-.874m0 0" style="stroke:none;fill-rule:nonzero;fill:#878276;fill-opacity:1"/><path d="M36.117 28.57h.203v.473h-.203zm0 0" style="stroke:none;fill-rule:nonzero;fill:#363432;fill-opacity:1"/><path d="M127.219 19.61q.067.03.133.066-.03.233-.067.472.069.03.137.067-.1.033-.203.066c-.012-.097-.028-.199-.04-.297q-.009-.086-.019-.168-.007-.07-.008-.14c.02-.024.043-.043.067-.067m0 0" style="stroke:none;fill-rule:nonzero;fill:#292725;fill-opacity:1"/><path d="M106.938 136.18v.27h-.407l.07-.2c.133-.07.133-.07.337-.07m0 0" style="stroke:none;fill-rule:nonzero;fill:#050000;fill-opacity:1"/><path d="M109.98 135.668q.063.018.122.043-.03.1-.067.2h-.402v-.134c.203-.136.203-.136.347-.109m0 0" style="stroke:none;fill-rule:nonzero;fill:#0a0a09;fill-opacity:1"/><path d="M2.36 108.758c.163.031.163.031.335.066v.27q-.165-.036-.336-.07zm0 0" style="stroke:none;fill-rule:nonzero;fill:#000;fill-opacity:1"/><path d="M57.074 98.852c.156.02.309.043.473.066v.137c.11.02.219.043.336.066-.168.059-.246.074-.414.016q-.07-.043-.145-.078-.07-.043-.14-.079-.059-.032-.11-.062zm0 0" style="stroke:none;fill-rule:nonzero;fill:#787369;fill-opacity:1"/><path d="M44.54 98.852q.232.03.472.066v.137q.165.03.336.066c-.164.059-.246.074-.414.016q-.07-.043-.141-.078-.07-.043-.145-.079-.051-.032-.109-.062zm0 0" style="stroke:none;fill-rule:nonzero;fill:#787469;fill-opacity:1"/><path d="M32.883 32.008h.203q.03.165.066.336c-.109-.024-.222-.043-.336-.067q.03-.135.067-.27m0 0" style="stroke:none;fill-rule:nonzero;fill:#363432;fill-opacity:1"/><path d="M135.71 28.906h.2c.086.172.074.293.074.48q-.005.095-.004.188 0 .07-.003.14h-.067v-.538h-.133c-.023-.09-.047-.176-.066-.27m0 0" style="stroke:none;fill-rule:nonzero;fill:#040100;fill-opacity:1"/><path d="M72.64 86.52q.264.033.54.066v.137q.099.03.199.066c-.504-.043-.504-.043-.672-.172a1 1 0 0 1-.066-.097m0 0" style="stroke:none;fill-rule:nonzero;fill:#a09a8c;fill-opacity:1"/><path d="M34.164 136.18q.199.069.402.136v.133h-.402zm0 0" style="stroke:none;fill-rule:nonzero;fill:#000;fill-opacity:1"/><path d="M31.398 135.91h.274v.137h.133v.133h-.336c-.024-.09-.047-.176-.07-.27m0 0" style="stroke:none;fill-rule:nonzero;fill:#030000;fill-opacity:1"/><path d="M111.113 135.305h.203v.336h-.27q.034-.166.067-.336m0 0" style="stroke:none;fill-rule:nonzero;fill:#000;fill-opacity:1"/><path d="M128.77 123.984h.199v.336h-.266q.03-.165.067-.336m0 0" style="stroke:none;fill-rule:nonzero;fill:#080000;fill-opacity:1"/><path d="M62.734 101.14v.137c-.355.215-.355.215-.472.27q-.066-.036-.137-.07c.414-.336.414-.336.61-.336m0 0" style="stroke:none;fill-rule:nonzero;fill:#7b766c;fill-opacity:1"/><path d="M50.2 101.14v.137c-.356.215-.356.215-.473.27q-.063-.036-.133-.07c.414-.336.414-.336.605-.336m0 0" style="stroke:none;fill-rule:nonzero;fill:#7c776d;fill-opacity:1"/><path d="M110.102 51.414h.136v.336q-.165-.033-.336-.066c.09-.137.09-.137.2-.27m0 0" style="stroke:none;fill-rule:nonzero;fill:#393936;fill-opacity:1"/><path d="M4.582 21.156h.27v.274q-.135.03-.27.066zm0 0" style="stroke:none;fill-rule:nonzero;fill:#0d0707;fill-opacity:1"/><path d="M131.531 18.395h.203v.203h.133v.27h-.133l-.07-.204q-.064-.03-.133-.066zM9.297 13.68h.273l-.07.336h-.203zM131.734 119.941h.133v.403l-.336.07.133-.07c.047-.203.047-.203.07-.403M135.91 109.766h.067c.003.097.003.199.007.296v.165c-.007.148-.007.148-.074.28h-.2q.031-.098.067-.202h.133zm0 0" style="stroke:none;fill-rule:nonzero;fill:#000;fill-opacity:1"/><path d="M107.273 90.09h.473v.203h-.473zm0 0" style="stroke:none;fill-rule:nonzero;fill:#31302d;fill-opacity:1"/><path d="M17.992 87.531h.133v.27h.203v.133q-.166-.03-.336-.067zm0 0" style="stroke:none;fill-rule:nonzero;fill:#2e2e2b;fill-opacity:1"/><path d="M74.863 21.156h.133v.407l-.27.066v-.133h.137zm0 0" style="stroke:none;fill-rule:nonzero;fill:#282624;fill-opacity:1"/><path d="M13.68 9.297h.336V9.5l-.336.07zm0 0" style="stroke:none;fill-rule:nonzero;fill:#060000;fill-opacity:1"/><path d="M18.395 5.996h.34l-.07.27h-.27zm0 0" style="stroke:none;fill-rule:nonzero;fill:#110a0a;fill-opacity:1"/></svg>